<svg width="21" height="21" viewBox="0 0 21 21" fill="none" xmlns="http://www.w3.org/2000/svg">
<g id="vuesax/bold/money-recive">
<g id="money-recive">
<path id="Vector" d="M16.175 5.70835H17.3083C17.15 5.48335 16.9833 5.27501 16.8083 5.06668L16.175 5.70835Z" fill="white"/>
<path id="Vector_2" d="M15.9333 4.18332C15.725 4.00832 15.5167 3.84165 15.2917 3.68332V4.81665L15.9333 4.18332Z" fill="white"/>
<path id="Vector_3" d="M16.8167 5.06668L19.275 2.60835C19.5167 2.36668 19.5167 1.96668 19.275 1.72501C19.0333 1.48335 18.6333 1.48335 18.3917 1.72501L15.9333 4.18335C16.25 4.45835 16.5417 4.75835 16.8167 5.06668Z" fill="white"/>
<path id="Vector_4" d="M15.2917 3C15.2917 2.65833 15.0083 2.375 14.6667 2.375C14.3333 2.375 14.0667 2.64167 14.05 2.96667C14.4833 3.175 14.9 3.40833 15.2917 3.68333V3Z" fill="white"/>
<path id="Vector_5" d="M18.625 6.33334C18.625 5.99168 18.3417 5.70834 18 5.70834H17.3083C17.5833 6.10001 17.825 6.51668 18.025 6.95001C18.3583 6.93334 18.625 6.66668 18.625 6.33334Z" fill="white"/>
<path id="Vector_6" d="M11.125 12.7917H11.375C11.7 12.7917 11.9583 12.5 11.9583 12.1417C11.9583 11.6917 11.8333 11.625 11.55 11.525L11.125 11.375V12.7917Z" fill="white"/>
<path id="Vector_7" d="M18.0333 6.94999C18.025 6.94999 18.0167 6.95832 18 6.95832H14.6667C14.5833 6.95832 14.5083 6.94166 14.425 6.90832C14.275 6.84166 14.15 6.72499 14.0833 6.56666C14.0583 6.49166 14.0417 6.41666 14.0417 6.33332V2.99999C14.0417 2.99166 14.05 2.98332 14.05 2.96666C12.9667 2.45832 11.7667 2.16666 10.5 2.16666C5.9 2.16666 2.16666 5.89999 2.16666 10.5C2.16666 15.1 5.9 18.8333 10.5 18.8333C15.1 18.8333 18.8333 15.1 18.8333 10.5C18.8333 9.23332 18.5417 8.03332 18.0333 6.94999ZM11.9583 10.35C12.4917 10.5333 13.2083 10.925 13.2083 12.15C13.2083 13.1917 12.3833 14.05 11.375 14.05H11.125V14.2583C11.125 14.6 10.8417 14.8833 10.5 14.8833C10.1583 14.8833 9.875 14.6 9.875 14.2583V14.05H9.80833C8.7 14.05 7.79166 13.1167 7.79166 11.9667C7.79166 11.6167 8.075 11.3333 8.41666 11.3333C8.75833 11.3333 9.04166 11.6167 9.04166 11.9583C9.04166 12.4167 9.38333 12.7917 9.80833 12.7917H9.875V10.9417L9.04166 10.65C8.50833 10.4667 7.79166 10.075 7.79166 8.84999C7.79166 7.80832 8.61666 6.94999 9.625 6.94999H9.875V6.74999C9.875 6.40832 10.1583 6.12499 10.5 6.12499C10.8417 6.12499 11.125 6.40832 11.125 6.74999V6.95832H11.1917C12.3 6.95832 13.2083 7.89166 13.2083 9.04166C13.2083 9.38332 12.925 9.66666 12.5833 9.66666C12.2417 9.66666 11.9583 9.38332 11.9583 9.04166C11.9583 8.58332 11.6167 8.20832 11.1917 8.20832H11.125V10.0583L11.9583 10.35Z" fill="white"/>
<path id="Vector_8" d="M9.04166 8.85834C9.04166 9.30834 9.16666 9.37501 9.45 9.47501L9.875 9.62501V8.20834H9.625C9.30833 8.20834 9.04166 8.50001 9.04166 8.85834Z" fill="white"/>
</g>
</g>
</svg>
