<svg width="25" height="24" viewBox="0 0 25 24" fill="white" xmlns="http://www.w3.org/2000/svg">
<g id="vuesax/broken/building-3">
<g id="building-3">
<path id="Vector" d="M2.25 22H22.25" stroke="#9B9B9B" stroke-width="1.5" stroke-miterlimit="10" stroke-linecap="round" stroke-linejoin="round"/>
<path id="Vector_2" d="M3.25 8.99998V7.06998C3.25 6.39998 3.59001 5.77995 4.14001 5.40995L8.14001 2.73997C8.81001 2.28997 9.68999 2.28997 10.36 2.73997L14.36 5.40995C14.92 5.77995 15.25 6.39998 15.25 7.06998L15.26 21.99L3.26001 22.01L3.25 12.92" stroke="#9B9B9B" stroke-width="1.5" stroke-miterlimit="10" stroke-linecap="round" stroke-linejoin="round"/>
<path id="Vector_3" d="M20.23 22.01V18" stroke="#9B9B9B" stroke-width="1.5" stroke-miterlimit="10" stroke-linecap="round" stroke-linejoin="round"/>
<path id="Vector_4" d="M20.25 12C19.15 12 18.25 12.9 18.25 14V16C18.25 17.1 19.15 18 20.25 18C21.35 18 22.25 17.1 22.25 16V14C22.25 12.9 21.35 12 20.25 12Z" stroke="#9B9B9B" stroke-width="1.5" stroke-miterlimit="10" stroke-linecap="round" stroke-linejoin="round"/>
<path id="Vector_5" d="M3.25 14H15.25" stroke="#9B9B9B" stroke-width="1.5" stroke-miterlimit="10" stroke-linecap="round" stroke-linejoin="round"/>
<path id="Vector_6" d="M9.25 22V18.25" stroke="#9B9B9B" stroke-width="1.5" stroke-miterlimit="10" stroke-linecap="round" stroke-linejoin="round"/>
<path id="Vector_7" d="M9.25 10.5C10.0784 10.5 10.75 9.82843 10.75 9C10.75 8.17157 10.0784 7.5 9.25 7.5C8.42157 7.5 7.75 8.17157 7.75 9C7.75 9.82843 8.42157 10.5 9.25 10.5Z" stroke="#9B9B9B" stroke-width="1.5" stroke-miterlimit="10" stroke-linecap="round" stroke-linejoin="round"/>
</g>
</g>
</svg>
