<svg width="10" height="12" viewBox="0 0 10 12" fill="none" xmlns="http://www.w3.org/2000/svg">
<g id="Calendar">
<path id="Rectangle 2" d="M1.42933 2.81866C1.56888 2.66563 1.55795 2.42844 1.40491 2.28889C1.25188 2.14935 1.0147 2.16028 0.875146 2.31331L1.42933 2.81866ZM3 2.12498C3.00305 2.12498 3.0061 2.12498 3.00915 2.12498C3.01219 2.12498 3.01523 2.12498 3.01827 2.12498C3.02132 2.12498 3.02435 2.12498 3.02739 2.12498C3.03042 2.12498 3.03346 2.12498 3.03649 2.12498C3.03952 2.12498 3.04254 2.12498 3.04557 2.12498C3.04859 2.12498 3.05162 2.12498 3.05464 2.12498C3.05766 2.12498 3.06067 2.12498 3.06369 2.12498C3.0667 2.12498 3.06972 2.12498 3.07273 2.12498C3.07574 2.12498 3.07874 2.12498 3.08175 2.12498C3.08475 2.12498 3.08775 2.12498 3.09075 2.12498C3.09375 2.12498 3.09675 2.12498 3.09975 2.12498C3.10274 2.12498 3.10573 2.12498 3.10872 2.12498C3.11171 2.12498 3.1147 2.12498 3.11768 2.12498C3.12067 2.12498 3.12365 2.12498 3.12663 2.12498C3.12961 2.12498 3.13259 2.12498 3.13556 2.12498C3.13854 2.12498 3.14151 2.12498 3.14448 2.12498C3.14745 2.12498 3.15041 2.12498 3.15338 2.12498C3.15634 2.12498 3.15931 2.12498 3.16227 2.12498C3.16523 2.12498 3.16818 2.12498 3.17114 2.12498C3.1741 2.12498 3.17705 2.12498 3.18 2.12498C3.18295 2.12498 3.1859 2.12498 3.18884 2.12498C3.19179 2.12498 3.19473 2.12498 3.19767 2.12498C3.20061 2.12498 3.20355 2.12498 3.20649 2.12498C3.20942 2.12498 3.21236 2.12498 3.21529 2.12498C3.21822 2.12498 3.22115 2.12498 3.22407 2.12498C3.227 2.12498 3.22992 2.12498 3.23285 2.12498C3.23577 2.12498 3.23869 2.12498 3.2416 2.12498C3.24452 2.12498 3.24744 2.12498 3.25035 2.12498C3.25326 2.12498 3.25617 2.12498 3.25908 2.12498C3.26199 2.12498 3.26489 2.12498 3.26779 2.12498C3.2707 2.12498 3.2736 2.12498 3.2765 2.12498C3.2794 2.12498 3.28229 2.12498 3.28519 2.12498C3.28808 2.12498 3.29097 2.12498 3.29386 2.12498C3.29675 2.12498 3.29964 2.12498 3.30252 2.12498C3.30541 2.12498 3.30829 2.12498 3.31117 2.12498C3.31405 2.12498 3.31693 2.12498 3.3198 2.12498C3.32268 2.12498 3.32555 2.12498 3.32842 2.12498C3.3313 2.12498 3.33416 2.12498 3.33703 2.12498C3.3399 2.12498 3.34276 2.12498 3.34562 2.12498C3.34849 2.12498 3.35135 2.12498 3.3542 2.12498C3.35706 2.12498 3.35992 2.12498 3.36277 2.12498C3.36563 2.12498 3.36848 2.12498 3.37133 2.12498C3.37417 2.12498 3.37702 2.12498 3.37987 2.12498C3.38271 2.12498 3.38555 2.12498 3.38839 2.12498C3.39123 2.12498 3.39407 2.12498 3.39691 2.12498C3.39974 2.12498 3.40258 2.12498 3.40541 2.12498C3.40824 2.12498 3.41107 2.12498 3.4139 2.12498C3.41673 2.12498 3.41955 2.12498 3.42238 2.12498C3.4252 2.12498 3.42802 2.12498 3.43084 2.12498C3.43366 2.12498 3.43647 2.12498 3.43929 2.12498C3.4421 2.12498 3.44492 2.12498 3.44773 2.12498C3.45054 2.12498 3.45335 2.12498 3.45615 2.12498C3.45896 2.12498 3.46176 2.12498 3.46457 2.12498C3.46737 2.12498 3.47017 2.12498 3.47297 2.12498C3.47576 2.12498 3.47856 2.12498 3.48135 2.12498C3.48415 2.12498 3.48694 2.12498 3.48973 2.12498C3.49252 2.12498 3.49531 2.12498 3.49809 2.12498C3.50088 2.12498 3.50366 2.12498 3.50644 2.12498C3.50923 2.12498 3.512 2.12498 3.51478 2.12498C3.51756 2.12498 3.52034 2.12498 3.52311 2.12498C3.52588 2.12498 3.52865 2.12498 3.53142 2.12498C3.53419 2.12498 3.53696 2.12498 3.53973 2.12498C3.54249 2.12498 3.54526 2.12498 3.54802 2.12498C3.55078 2.12498 3.55354 2.12498 3.5563 2.12498C3.55906 2.12498 3.56181 2.12498 3.56456 2.12498C3.56732 2.12498 3.57007 2.12498 3.57282 2.12498C3.57557 2.12498 3.57832 2.12498 3.58106 2.12498C3.58381 2.12498 3.58655 2.12498 3.5893 2.12498C3.59204 2.12498 3.59478 2.12498 3.59752 2.12498C3.60026 2.12498 3.60299 2.12498 3.60573 2.12498C3.60846 2.12498 3.61119 2.12498 3.61392 2.12498C3.61666 2.12498 3.61938 2.12498 3.62211 2.12498C3.62484 2.12498 3.62756 2.12498 3.63029 2.12498C3.63301 2.12498 3.63573 2.12498 3.63845 2.12498C3.64117 2.12498 3.64389 2.12498 3.6466 2.12498C3.64932 2.12498 3.65203 2.12498 3.65475 2.12498C3.65746 2.12498 3.66017 2.12498 3.66288 2.12498C3.66559 2.12498 3.66829 2.12498 3.671 2.12498C3.6737 2.12498 3.6764 2.12498 3.67911 2.12498C3.68181 2.12498 3.68451 2.12498 3.6872 2.12498C3.6899 2.12498 3.6926 2.12498 3.69529 2.12498C3.69798 2.12498 3.70068 2.12498 3.70337 2.12498C3.70606 2.12498 3.70875 2.12498 3.71143 2.12498C3.71412 2.12498 3.7168 2.12498 3.71949 2.12498C3.72217 2.12498 3.72485 2.12498 3.72753 2.12498C3.73021 2.12498 3.73289 2.12498 3.73557 2.12498C3.73824 2.12498 3.74092 2.12498 3.74359 2.12498C3.74626 2.12498 3.74893 2.12498 3.7516 2.12498C3.75427 2.12498 3.75694 2.12498 3.75961 2.12498C3.76227 2.12498 3.76494 2.12498 3.7676 2.12498C3.77026 2.12498 3.77292 2.12498 3.77558 2.12498C3.77824 2.12498 3.7809 2.12498 3.78356 2.12498C3.78621 2.12498 3.78887 2.12498 3.79152 2.12498C3.79417 2.12498 3.79682 2.12498 3.79947 2.12498C3.80212 2.12498 3.80477 2.12498 3.80741 2.12498C3.81006 2.12498 3.8127 2.12498 3.81535 2.12498C3.81799 2.12498 3.82063 2.12498 3.82327 2.12498C3.82591 2.12498 3.82854 2.12498 3.83118 2.12498C3.83382 2.12498 3.83645 2.12498 3.83908 2.12498C3.84172 2.12498 3.84435 2.12498 3.84698 2.12498C3.84961 2.12498 3.85224 2.12498 3.85486 2.12498C3.85749 2.12498 3.86011 2.12498 3.86274 2.12498C3.86536 2.12498 3.86798 2.12498 3.8706 2.12498C3.87322 2.12498 3.87584 2.12498 3.87846 2.12498C3.88107 2.12498 3.88369 2.12498 3.8863 2.12498C3.88892 2.12498 3.89153 2.12498 3.89414 2.12498C3.89675 2.12498 3.89936 2.12498 3.90197 2.12498C3.90458 2.12498 3.90718 2.12498 3.90979 2.12498C3.91239 2.12498 3.915 2.12498 3.9176 2.12498C3.9202 2.12498 3.9228 2.12498 3.9254 2.12498C3.928 2.12498 3.93059 2.12498 3.93319 2.12498C3.93579 2.12498 3.93838 2.12498 3.94097 2.12498C3.94357 2.12498 3.94616 2.12498 3.94875 2.12498C3.95134 2.12498 3.95393 2.12498 3.95651 2.12498C3.9591 2.12498 3.96169 2.12498 3.96427 2.12498C3.96685 2.12498 3.96944 2.12498 3.97202 2.12498C3.9746 2.12498 3.97718 2.12498 3.97976 2.12498C3.98234 2.12498 3.98491 2.12498 3.98749 2.12498C3.99006 2.12498 3.99264 2.12498 3.99521 2.12498C3.99778 2.12498 4.00035 2.12498 4.00292 2.12498C4.00549 2.12498 4.00806 2.12498 4.01063 2.12498C4.0132 2.12498 4.01576 2.12498 4.01833 2.12498C4.02089 2.12498 4.02345 2.12498 4.02602 2.12498C4.02858 2.12498 4.03114 2.12498 4.0337 2.12498C4.03626 2.12498 4.03881 2.12498 4.04137 2.12498C4.04393 2.12498 4.04648 2.12498 4.04903 2.12498C4.05159 2.12498 4.05414 2.12498 4.05669 2.12498C4.05924 2.12498 4.06179 2.12498 4.06434 2.12498C4.06689 2.12498 4.06944 2.12498 4.07198 2.12498C4.07453 2.12498 4.07707 2.12498 4.07961 2.12498C4.08216 2.12498 4.0847 2.12498 4.08724 2.12498C4.08978 2.12498 4.09232 2.12498 4.09486 2.12498C4.0974 2.12498 4.09993 2.12498 4.10247 2.12498C4.105 2.12498 4.10754 2.12498 4.11007 2.12498C4.1126 2.12498 4.11513 2.12498 4.11767 2.12498C4.1202 2.12498 4.12273 2.12498 4.12525 2.12498C4.12778 2.12498 4.13031 2.12498 4.13283 2.12498C4.13536 2.12498 4.13788 2.12498 4.14041 2.12498C4.14293 2.12498 4.14545 2.12498 4.14797 2.12498C4.15049 2.12498 4.15301 2.12498 4.15553 2.12498C4.15805 2.12498 4.16057 2.12498 4.16308 2.12498C4.1656 2.12498 4.16811 2.12498 4.17063 2.12498C4.17314 2.12498 4.17565 2.12498 4.17816 2.12498C4.18068 2.12498 4.18319 2.12498 4.1857 2.12498C4.1882 2.12498 4.19071 2.12498 4.19322 2.12498C4.19573 2.12498 4.19823 2.12498 4.20074 2.12498C4.20324 2.12498 4.20574 2.12498 4.20825 2.12498C4.21075 2.12498 4.21325 2.12498 4.21575 2.12498C4.21825 2.12498 4.22075 2.12498 4.22325 2.12498C4.22574 2.12498 4.22824 2.12498 4.23074 2.12498C4.23323 2.12498 4.23573 2.12498 4.23822 2.12498C4.24071 2.12498 4.24321 2.12498 4.2457 2.12498C4.24819 2.12498 4.25068 2.12498 4.25317 2.12498C4.25566 2.12498 4.25815 2.12498 4.26063 2.12498C4.26312 2.12498 4.26561 2.12498 4.26809 2.12498C4.27058 2.12498 4.27306 2.12498 4.27554 2.12498C4.27803 2.12498 4.28051 2.12498 4.28299 2.12498C4.28547 2.12498 4.28795 2.12498 4.29043 2.12498C4.29291 2.12498 4.29539 2.12498 4.29786 2.12498C4.30034 2.12498 4.30282 2.12498 4.30529 2.12498C4.30777 2.12498 4.31024 2.12498 4.31271 2.12498C4.31519 2.12498 4.31766 2.12498 4.32013 2.12498C4.3226 2.12498 4.32507 2.12498 4.32754 2.12498C4.33001 2.12498 4.33248 2.12498 4.33495 2.12498C4.33741 2.12498 4.33988 2.12498 4.34234 2.12498C4.34481 2.12498 4.34727 2.12498 4.34974 2.12498C4.3522 2.12498 4.35466 2.12498 4.35713 2.12498C4.35959 2.12498 4.36205 2.12498 4.36451 2.12498C4.36697 2.12498 4.36943 2.12498 4.37189 2.12498C4.37434 2.12498 4.3768 2.12498 4.37926 2.12498C4.38171 2.12498 4.38417 2.12498 4.38662 2.12498C4.38908 2.12498 4.39153 2.12498 4.39399 2.12498C4.39644 2.12498 4.39889 2.12498 4.40134 2.12498C4.40379 2.12498 4.40624 2.12498 4.40869 2.12498C4.41114 2.12498 4.41359 2.12498 4.41604 2.12498C4.41849 2.12498 4.42093 2.12498 4.42338 2.12498C4.42583 2.12498 4.42827 2.12498 4.43072 2.12498C4.43316 2.12498 4.43561 2.12498 4.43805 2.12498C4.44049 2.12498 4.44293 2.12498 4.44537 2.12498C4.44782 2.12498 4.45026 2.12498 4.4527 2.12498C4.45514 2.12498 4.45758 2.12498 4.46001 2.12498C4.46245 2.12498 4.46489 2.12498 4.46733 2.12498C4.46976 2.12498 4.4722 2.12498 4.47463 2.12498C4.47707 2.12498 4.4795 2.12498 4.48194 2.12498C4.48437 2.12498 4.4868 2.12498 4.48924 2.12498C4.49167 2.12498 4.4941 2.12498 4.49653 2.12498C4.49896 2.12498 4.50139 2.12498 4.50382 2.12498C4.50625 2.12498 4.50868 2.12498 4.51111 2.12498C4.51354 2.12498 4.51596 2.12498 4.51839 2.12498C4.52082 2.12498 4.52324 2.12498 4.52567 2.12498C4.52809 2.12498 4.53052 2.12498 4.53294 2.12498C4.53537 2.12498 4.53779 2.12498 4.54021 2.12498C4.54263 2.12498 4.54506 2.12498 4.54748 2.12498C4.5499 2.12498 4.55232 2.12498 4.55474 2.12498C4.55716 2.12498 4.55958 2.12498 4.562 2.12498C4.56442 2.12498 4.56684 2.12498 4.56925 2.12498C4.57167 2.12498 4.57409 2.12498 4.5765 2.12498C4.57892 2.12498 4.58134 2.12498 4.58375 2.12498C4.58617 2.12498 4.58858 2.12498 4.591 2.12498C4.59341 2.12498 4.59582 2.12498 4.59824 2.12498C4.60065 2.12498 4.60306 2.12498 4.60547 2.12498C4.60788 2.12498 4.6103 2.12498 4.61271 2.12498C4.61512 2.12498 4.61753 2.12498 4.61994 2.12498C4.62235 2.12498 4.62475 2.12498 4.62716 2.12498C4.62957 2.12498 4.63198 2.12498 4.63439 2.12498C4.63679 2.12498 4.6392 2.12498 4.64161 2.12498C4.64401 2.12498 4.64642 2.12498 4.64882 2.12498C4.65123 2.12498 4.65363 2.12498 4.65604 2.12498C4.65844 2.12498 4.66085 2.12498 4.66325 2.12498C4.66565 2.12498 4.66806 2.12498 4.67046 2.12498C4.67286 2.12498 4.67526 2.12498 4.67766 2.12498C4.68007 2.12498 4.68247 2.12498 4.68487 2.12498C4.68727 2.12498 4.68967 2.12498 4.69207 2.12498C4.69447 2.12498 4.69687 2.12498 4.69927 2.12498C4.70166 2.12498 4.70406 2.12498 4.70646 2.12498C4.70886 2.12498 4.71126 2.12498 4.71365 2.12498C4.71605 2.12498 4.71845 2.12498 4.72084 2.12498C4.72324 2.12498 4.72564 2.12498 4.72803 2.12498C4.73043 2.12498 4.73282 2.12498 4.73522 2.12498C4.73761 2.12498 4.74001 2.12498 4.7424 2.12498C4.74479 2.12498 4.74719 2.12498 4.74958 2.12498C4.75197 2.12498 4.75437 2.12498 4.75676 2.12498C4.75915 2.12498 4.76154 2.12498 4.76394 2.12498C4.76633 2.12498 4.76872 2.12498 4.77111 2.12498C4.7735 2.12498 4.77589 2.12498 4.77828 2.12498C4.78067 2.12498 4.78307 2.12498 4.78546 2.12498C4.78785 2.12498 4.79023 2.12498 4.79262 2.12498C4.79501 2.12498 4.7974 2.12498 4.79979 2.12498C4.80218 2.12498 4.80457 2.12498 4.80696 2.12498C4.80935 2.12498 4.81173 2.12498 4.81412 2.12498C4.81651 2.12498 4.8189 2.12498 4.82128 2.12498C4.82367 2.12498 4.82606 2.12498 4.82844 2.12498C4.83083 2.12498 4.83322 2.12498 4.8356 2.12498C4.83799 2.12498 4.84037 2.12498 4.84276 2.12498C4.84515 2.12498 4.84753 2.12498 4.84992 2.12498C4.8523 2.12498 4.85469 2.12498 4.85707 2.12498C4.85946 2.12498 4.86184 2.12498 4.86423 2.12498C4.86661 2.12498 4.869 2.12498 4.87138 2.12498C4.87376 2.12498 4.87615 2.12498 4.87853 2.12498C4.88091 2.12498 4.8833 2.12498 4.88568 2.12498C4.88806 2.12498 4.89045 2.12498 4.89283 2.12498C4.89521 2.12498 4.8976 2.12498 4.89998 2.12498C4.90236 2.12498 4.90475 2.12498 4.90713 2.12498C4.90951 2.12498 4.91189 2.12498 4.91427 2.12498C4.91666 2.12498 4.91904 2.12498 4.92142 2.12498C4.9238 2.12498 4.92619 2.12498 4.92857 2.12498C4.93095 2.12498 4.93333 2.12498 4.93571 2.12498C4.93809 2.12498 4.94047 2.12498 4.94286 2.12498C4.94524 2.12498 4.94762 2.12498 4.95 2.12498C4.95238 2.12498 4.95476 2.12498 4.95714 2.12498C4.95953 2.12498 4.96191 2.12498 4.96429 2.12498C4.96667 2.12498 4.96905 2.12498 4.97143 2.12498C4.97381 2.12498 4.97619 2.12498 4.97857 2.12498C4.98095 2.12498 4.98333 2.12498 4.98572 2.12498C4.9881 2.12498 4.99048 2.12498 4.99286 2.12498C4.99524 2.12498 4.99762 2.12498 5 2.12498C5.00238 2.12498 5.00476 2.12498 5.00714 2.12498C5.00952 2.12498 5.0119 2.12498 5.01428 2.12498C5.01667 2.12498 5.01905 2.12498 5.02143 2.12498C5.02381 2.12498 5.02619 2.12498 5.02857 2.12498C5.03095 2.12498 5.03333 2.12498 5.03571 2.12498C5.03809 2.12498 5.04047 2.12498 5.04286 2.12498C5.04524 2.12498 5.04762 2.12498 5.05 2.12498C5.05238 2.12498 5.05476 2.12498 5.05714 2.12498C5.05953 2.12498 5.06191 2.12498 5.06429 2.12498C5.06667 2.12498 5.06905 2.12498 5.07143 2.12498C5.07381 2.12498 5.0762 2.12498 5.07858 2.12498C5.08096 2.12498 5.08334 2.12498 5.08573 2.12498C5.08811 2.12498 5.09049 2.12498 5.09287 2.12498C5.09525 2.12498 5.09764 2.12498 5.10002 2.12498C5.1024 2.12498 5.10479 2.12498 5.10717 2.12498C5.10955 2.12498 5.11194 2.12498 5.11432 2.12498C5.1167 2.12498 5.11909 2.12498 5.12147 2.12498C5.12385 2.12498 5.12624 2.12498 5.12862 2.12498C5.131 2.12498 5.13339 2.12498 5.13577 2.12498C5.13816 2.12498 5.14054 2.12498 5.14293 2.12498C5.14531 2.12498 5.1477 2.12498 5.15008 2.12498C5.15247 2.12498 5.15485 2.12498 5.15724 2.12498C5.15963 2.12498 5.16201 2.12498 5.1644 2.12498C5.16678 2.12498 5.16917 2.12498 5.17156 2.12498C5.17394 2.12498 5.17633 2.12498 5.17872 2.12498C5.1811 2.12498 5.18349 2.12498 5.18588 2.12498C5.18827 2.12498 5.19065 2.12498 5.19304 2.12498C5.19543 2.12498 5.19782 2.12498 5.20021 2.12498C5.2026 2.12498 5.20499 2.12498 5.20738 2.12498C5.20977 2.12498 5.21215 2.12498 5.21454 2.12498C5.21693 2.12498 5.21933 2.12498 5.22172 2.12498C5.22411 2.12498 5.2265 2.12498 5.22889 2.12498C5.23128 2.12498 5.23367 2.12498 5.23606 2.12498C5.23846 2.12498 5.24085 2.12498 5.24324 2.12498C5.24563 2.12498 5.24803 2.12498 5.25042 2.12498C5.25281 2.12498 5.25521 2.12498 5.2576 2.12498C5.25999 2.12498 5.26239 2.12498 5.26478 2.12498C5.26718 2.12498 5.26957 2.12498 5.27197 2.12498C5.27436 2.12498 5.27676 2.12498 5.27916 2.12498C5.28155 2.12498 5.28395 2.12498 5.28635 2.12498C5.28874 2.12498 5.29114 2.12498 5.29354 2.12498C5.29594 2.12498 5.29834 2.12498 5.30073 2.12498C5.30313 2.12498 5.30553 2.12498 5.30793 2.12498C5.31033 2.12498 5.31273 2.12498 5.31513 2.12498C5.31753 2.12498 5.31993 2.12498 5.32234 2.12498C5.32474 2.12498 5.32714 2.12498 5.32954 2.12498C5.33194 2.12498 5.33435 2.12498 5.33675 2.12498C5.33915 2.12498 5.34156 2.12498 5.34396 2.12498C5.34637 2.12498 5.34877 2.12498 5.35118 2.12498C5.35358 2.12498 5.35599 2.12498 5.35839 2.12498C5.3608 2.12498 5.36321 2.12498 5.36561 2.12498C5.36802 2.12498 5.37043 2.12498 5.37284 2.12498C5.37525 2.12498 5.37765 2.12498 5.38006 2.12498C5.38247 2.12498 5.38488 2.12498 5.38729 2.12498C5.3897 2.12498 5.39212 2.12498 5.39453 2.12498C5.39694 2.12498 5.39935 2.12498 5.40176 2.12498C5.40418 2.12498 5.40659 2.12498 5.409 2.12498C5.41142 2.12498 5.41383 2.12498 5.41625 2.12498C5.41866 2.12498 5.42108 2.12498 5.4235 2.12498C5.42591 2.12498 5.42833 2.12498 5.43075 2.12498C5.43316 2.12498 5.43558 2.12498 5.438 2.12498C5.44042 2.12498 5.44284 2.12498 5.44526 2.12498C5.44768 2.12498 5.4501 2.12498 5.45252 2.12498C5.45494 2.12498 5.45737 2.12498 5.45979 2.12498C5.46221 2.12498 5.46463 2.12498 5.46706 2.12498C5.46948 2.12498 5.47191 2.12498 5.47433 2.12498C5.47676 2.12498 5.47918 2.12498 5.48161 2.12498C5.48404 2.12498 5.48646 2.12498 5.48889 2.12498C5.49132 2.12498 5.49375 2.12498 5.49618 2.12498C5.49861 2.12498 5.50104 2.12498 5.50347 2.12498C5.5059 2.12498 5.50833 2.12498 5.51076 2.12498C5.5132 2.12498 5.51563 2.12498 5.51806 2.12498C5.5205 2.12498 5.52293 2.12498 5.52537 2.12498C5.5278 2.12498 5.53024 2.12498 5.53267 2.12498C5.53511 2.12498 5.53755 2.12498 5.53999 2.12498C5.54242 2.12498 5.54486 2.12498 5.5473 2.12498C5.54974 2.12498 5.55218 2.12498 5.55463 2.12498C5.55707 2.12498 5.55951 2.12498 5.56195 2.12498C5.56439 2.12498 5.56684 2.12498 5.56928 2.12498C5.57173 2.12498 5.57417 2.12498 5.57662 2.12498C5.57907 2.12498 5.58151 2.12498 5.58396 2.12498C5.58641 2.12498 5.58886 2.12498 5.59131 2.12498C5.59376 2.12498 5.59621 2.12498 5.59866 2.12498C5.60111 2.12498 5.60356 2.12498 5.60601 2.12498C5.60847 2.12498 5.61092 2.12498 5.61338 2.12498C5.61583 2.12498 5.61829 2.12498 5.62074 2.12498C5.6232 2.12498 5.62566 2.12498 5.62811 2.12498C5.63057 2.12498 5.63303 2.12498 5.63549 2.12498C5.63795 2.12498 5.64041 2.12498 5.64287 2.12498C5.64534 2.12498 5.6478 2.12498 5.65026 2.12498C5.65273 2.12498 5.65519 2.12498 5.65766 2.12498C5.66012 2.12498 5.66259 2.12498 5.66505 2.12498C5.66752 2.12498 5.66999 2.12498 5.67246 2.12498C5.67493 2.12498 5.6774 2.12498 5.67987 2.12498C5.68234 2.12498 5.68481 2.12498 5.68729 2.12498C5.68976 2.12498 5.69223 2.12498 5.69471 2.12498C5.69718 2.12498 5.69966 2.12498 5.70214 2.12498C5.70461 2.12498 5.70709 2.12498 5.70957 2.12498C5.71205 2.12498 5.71453 2.12498 5.71701 2.12498C5.71949 2.12498 5.72197 2.12498 5.72446 2.12498C5.72694 2.12498 5.72942 2.12498 5.73191 2.12498C5.73439 2.12498 5.73688 2.12498 5.73937 2.12498C5.74185 2.12498 5.74434 2.12498 5.74683 2.12498C5.74932 2.12498 5.75181 2.12498 5.7543 2.12498C5.75679 2.12498 5.75929 2.12498 5.76178 2.12498C5.76427 2.12498 5.76677 2.12498 5.76926 2.12498C5.77176 2.12498 5.77426 2.12498 5.77675 2.12498C5.77925 2.12498 5.78175 2.12498 5.78425 2.12498C5.78675 2.12498 5.78925 2.12498 5.79175 2.12498C5.79426 2.12498 5.79676 2.12498 5.79926 2.12498C5.80177 2.12498 5.80427 2.12498 5.80678 2.12498C5.80929 2.12498 5.8118 2.12498 5.8143 2.12498C5.81681 2.12498 5.81932 2.12498 5.82184 2.12498C5.82435 2.12498 5.82686 2.12498 5.82937 2.12498C5.83189 2.12498 5.8344 2.12498 5.83692 2.12498C5.83943 2.12498 5.84195 2.12498 5.84447 2.12498C5.84699 2.12498 5.84951 2.12498 5.85203 2.12498C5.85455 2.12498 5.85707 2.12498 5.85959 2.12498C5.86212 2.12498 5.86464 2.12498 5.86717 2.12498C5.86969 2.12498 5.87222 2.12498 5.87475 2.12498C5.87727 2.12498 5.8798 2.12498 5.88233 2.12498C5.88486 2.12498 5.8874 2.12498 5.88993 2.12498C5.89246 2.12498 5.895 2.12498 5.89753 2.12498C5.90007 2.12498 5.9026 2.12498 5.90514 2.12498C5.90768 2.12498 5.91022 2.12498 5.91276 2.12498C5.9153 2.12498 5.91784 2.12498 5.92039 2.12498C5.92293 2.12498 5.92547 2.12498 5.92802 2.12498C5.93056 2.12498 5.93311 2.12498 5.93566 2.12498C5.93821 2.12498 5.94076 2.12498 5.94331 2.12498C5.94586 2.12498 5.94841 2.12498 5.95097 2.12498C5.95352 2.12498 5.95607 2.12498 5.95863 2.12498C5.96119 2.12498 5.96374 2.12498 5.9663 2.12498C5.96886 2.12498 5.97142 2.12498 5.97398 2.12498C5.97655 2.12498 5.97911 2.12498 5.98167 2.12498C5.98424 2.12498 5.9868 2.12498 5.98937 2.12498C5.99194 2.12498 5.99451 2.12498 5.99708 2.12498C5.99965 2.12498 6.00222 2.12498 6.00479 2.12498C6.00736 2.12498 6.00994 2.12498 6.01251 2.12498C6.01509 2.12498 6.01766 2.12498 6.02024 2.12498C6.02282 2.12498 6.0254 2.12498 6.02798 2.12498C6.03056 2.12498 6.03315 2.12498 6.03573 2.12498C6.03831 2.12498 6.0409 2.12498 6.04349 2.12498C6.04607 2.12498 6.04866 2.12498 6.05125 2.12498C6.05384 2.12498 6.05643 2.12498 6.05903 2.12498C6.06162 2.12498 6.06421 2.12498 6.06681 2.12498C6.06941 2.12498 6.072 2.12498 6.0746 2.12498C6.0772 2.12498 6.0798 2.12498 6.0824 2.12498C6.085 2.12498 6.08761 2.12498 6.09021 2.12498C6.09282 2.12498 6.09542 2.12498 6.09803 2.12498C6.10064 2.12498 6.10325 2.12498 6.10586 2.12498C6.10847 2.12498 6.11108 2.12498 6.1137 2.12498C6.11631 2.12498 6.11893 2.12498 6.12154 2.12498C6.12416 2.12498 6.12678 2.12498 6.1294 2.12498C6.13202 2.12498 6.13464 2.12498 6.13726 2.12498C6.13989 2.12498 6.14251 2.12498 6.14514 2.12498C6.14776 2.12498 6.15039 2.12498 6.15302 2.12498C6.15565 2.12498 6.15828 2.12498 6.16092 2.12498C6.16355 2.12498 6.16618 2.12498 6.16882 2.12498C6.17145 2.12498 6.17409 2.12498 6.17673 2.12498C6.17937 2.12498 6.18201 2.12498 6.18465 2.12498C6.1873 2.12498 6.18994 2.12498 6.19259 2.12498C6.19523 2.12498 6.19788 2.12498 6.20053 2.12498C6.20318 2.12498 6.20583 2.12498 6.20848 2.12498C6.21113 2.12498 6.21379 2.12498 6.21644 2.12498C6.2191 2.12498 6.22176 2.12498 6.22442 2.12498C6.22708 2.12498 6.22974 2.12498 6.2324 2.12498C6.23506 2.12498 6.23773 2.12498 6.24039 2.12498C6.24306 2.12498 6.24573 2.12498 6.2484 2.12498C6.25107 2.12498 6.25374 2.12498 6.25641 2.12498C6.25908 2.12498 6.26176 2.12498 6.26443 2.12498C6.26711 2.12498 6.26979 2.12498 6.27247 2.12498C6.27515 2.12498 6.27783 2.12498 6.28051 2.12498C6.2832 2.12498 6.28588 2.12498 6.28857 2.12498C6.29125 2.12498 6.29394 2.12498 6.29663 2.12498C6.29932 2.12498 6.30202 2.12498 6.30471 2.12498C6.3074 2.12498 6.3101 2.12498 6.3128 2.12498C6.31549 2.12498 6.31819 2.12498 6.32089 2.12498C6.3236 2.12498 6.3263 2.12498 6.329 2.12498C6.33171 2.12498 6.33441 2.12498 6.33712 2.12498C6.33983 2.12498 6.34254 2.12498 6.34525 2.12498C6.34797 2.12498 6.35068 2.12498 6.3534 2.12498C6.35611 2.12498 6.35883 2.12498 6.36155 2.12498C6.36427 2.12498 6.36699 2.12498 6.36971 2.12498C6.37244 2.12498 6.37516 2.12498 6.37789 2.12498C6.38062 2.12498 6.38334 2.12498 6.38608 2.12498C6.38881 2.12498 6.39154 2.12498 6.39427 2.12498C6.39701 2.12498 6.39974 2.12498 6.40248 2.12498C6.40522 2.12498 6.40796 2.12498 6.4107 2.12498C6.41345 2.12498 6.41619 2.12498 6.41894 2.12498C6.42168 2.12498 6.42443 2.12498 6.42718 2.12498C6.42993 2.12498 6.43268 2.12498 6.43544 2.12498C6.43819 2.12498 6.44094 2.12498 6.4437 2.12498C6.44646 2.12498 6.44922 2.12498 6.45198 2.12498C6.45474 2.12498 6.45751 2.12498 6.46027 2.12498C6.46304 2.12498 6.46581 2.12498 6.46858 2.12498C6.47135 2.12498 6.47412 2.12498 6.47689 2.12498C6.47966 2.12498 6.48244 2.12498 6.48522 2.12498C6.488 2.12498 6.49077 2.12498 6.49356 2.12498C6.49634 2.12498 6.49912 2.12498 6.50191 2.12498C6.50469 2.12498 6.50748 2.12498 6.51027 2.12498C6.51306 2.12498 6.51585 2.12498 6.51865 2.12498C6.52144 2.12498 6.52424 2.12498 6.52703 2.12498C6.52983 2.12498 6.53263 2.12498 6.53543 2.12498C6.53824 2.12498 6.54104 2.12498 6.54385 2.12498C6.54665 2.12498 6.54946 2.12498 6.55227 2.12498C6.55508 2.12498 6.5579 2.12498 6.56071 2.12498C6.56353 2.12498 6.56634 2.12498 6.56916 2.12498C6.57198 2.12498 6.5748 2.12498 6.57762 2.12498C6.58045 2.12498 6.58327 2.12498 6.5861 2.12498C6.58893 2.12498 6.59176 2.12498 6.59459 2.12498C6.59742 2.12498 6.60026 2.12498 6.60309 2.12498C6.60593 2.12498 6.60877 2.12498 6.61161 2.12498C6.61445 2.12498 6.61729 2.12498 6.62013 2.12498C6.62298 2.12498 6.62583 2.12498 6.62867 2.12498C6.63152 2.12498 6.63437 2.12498 6.63723 2.12498C6.64008 2.12498 6.64294 2.12498 6.6458 2.12498C6.64865 2.12498 6.65151 2.12498 6.65438 2.12498C6.65724 2.12498 6.6601 2.12498 6.66297 2.12498C6.66584 2.12498 6.6687 2.12498 6.67158 2.12498C6.67445 2.12498 6.67732 2.12498 6.6802 2.12498C6.68307 2.12498 6.68595 2.12498 6.68883 2.12498C6.69171 2.12498 6.69459 2.12498 6.69748 2.12498C6.70036 2.12498 6.70325 2.12498 6.70614 2.12498C6.70903 2.12498 6.71192 2.12498 6.71481 2.12498C6.71771 2.12498 6.7206 2.12498 6.7235 2.12498C6.7264 2.12498 6.7293 2.12498 6.7322 2.12498C6.73511 2.12498 6.73801 2.12498 6.74092 2.12498C6.74383 2.12498 6.74674 2.12498 6.74965 2.12498C6.75256 2.12498 6.75548 2.12498 6.7584 2.12498C6.76131 2.12498 6.76423 2.12498 6.76715 2.12498C6.77008 2.12498 6.773 2.12498 6.77593 2.12498C6.77885 2.12498 6.78178 2.12498 6.78471 2.12498C6.78764 2.12498 6.79058 2.12498 6.79351 2.12498C6.79645 2.12498 6.79939 2.12498 6.80233 2.12498C6.80527 2.12498 6.80821 2.12498 6.81116 2.12498C6.8141 2.12498 6.81705 2.12498 6.82 2.12498C6.82295 2.12498 6.8259 2.12498 6.82886 2.12498C6.83181 2.12498 6.83477 2.12498 6.83773 2.12498C6.84069 2.12498 6.84366 2.12498 6.84662 2.12498C6.84959 2.12498 6.85255 2.12498 6.85552 2.12498C6.85849 2.12498 6.86146 2.12498 6.86444 2.12498C6.86741 2.12498 6.87039 2.12498 6.87337 2.12498C6.87635 2.12498 6.87933 2.12498 6.88232 2.12498C6.8853 2.12498 6.88829 2.12498 6.89128 2.12498C6.89427 2.12498 6.89726 2.12498 6.90025 2.12498C6.90325 2.12498 6.90625 2.12498 6.90925 2.12498C6.91225 2.12498 6.91525 2.12498 6.91825 2.12498C6.92126 2.12498 6.92426 2.12498 6.92727 2.12498C6.93028 2.12498 6.9333 2.12498 6.93631 2.12498C6.93933 2.12498 6.94234 2.12498 6.94536 2.12498C6.94838 2.12498 6.95141 2.12498 6.95443 2.12498C6.95746 2.12498 6.96048 2.12498 6.96351 2.12498C6.96654 2.12498 6.96958 2.12498 6.97261 2.12498C6.97565 2.12498 6.97868 2.12498 6.98173 2.12498C6.98477 2.12498 6.98781 2.12498 6.99085 2.12498C6.9939 2.12498 6.99695 2.12498 7 2.12498V1.37498C6.99695 1.37498 6.9939 1.37498 6.99085 1.37498C6.98781 1.37498 6.98477 1.37498 6.98173 1.37498C6.97868 1.37498 6.97565 1.37498 6.97261 1.37498C6.96958 1.37498 6.96654 1.37498 6.96351 1.37498C6.96048 1.37498 6.95746 1.37498 6.95443 1.37498C6.95141 1.37498 6.94838 1.37498 6.94536 1.37498C6.94234 1.37498 6.93933 1.37498 6.93631 1.37498C6.9333 1.37498 6.93028 1.37498 6.92727 1.37498C6.92426 1.37498 6.92126 1.37498 6.91825 1.37498C6.91525 1.37498 6.91225 1.37498 6.90925 1.37498C6.90625 1.37498 6.90325 1.37498 6.90025 1.37498C6.89726 1.37498 6.89427 1.37498 6.89128 1.37498C6.88829 1.37498 6.8853 1.37498 6.88232 1.37498C6.87933 1.37498 6.87635 1.37498 6.87337 1.37498C6.87039 1.37498 6.86741 1.37498 6.86444 1.37498C6.86146 1.37498 6.85849 1.37498 6.85552 1.37498C6.85255 1.37498 6.84959 1.37498 6.84662 1.37498C6.84366 1.37498 6.84069 1.37498 6.83773 1.37498C6.83477 1.37498 6.83181 1.37498 6.82886 1.37498C6.8259 1.37498 6.82295 1.37498 6.82 1.37498C6.81705 1.37498 6.8141 1.37498 6.81116 1.37498C6.80821 1.37498 6.80527 1.37498 6.80233 1.37498C6.79939 1.37498 6.79645 1.37498 6.79351 1.37498C6.79058 1.37498 6.78764 1.37498 6.78471 1.37498C6.78178 1.37498 6.77885 1.37498 6.77593 1.37498C6.773 1.37498 6.77008 1.37498 6.76715 1.37498C6.76423 1.37498 6.76131 1.37498 6.7584 1.37498C6.75548 1.37498 6.75256 1.37498 6.74965 1.37498C6.74674 1.37498 6.74383 1.37498 6.74092 1.37498C6.73801 1.37498 6.73511 1.37498 6.7322 1.37498C6.7293 1.37498 6.7264 1.37498 6.7235 1.37498C6.7206 1.37498 6.71771 1.37498 6.71481 1.37498C6.71192 1.37498 6.70903 1.37498 6.70614 1.37498C6.70325 1.37498 6.70036 1.37498 6.69748 1.37498C6.69459 1.37498 6.69171 1.37498 6.68883 1.37498C6.68595 1.37498 6.68307 1.37498 6.6802 1.37498C6.67732 1.37498 6.67445 1.37498 6.67158 1.37498C6.6687 1.37498 6.66584 1.37498 6.66297 1.37498C6.6601 1.37498 6.65724 1.37498 6.65438 1.37498C6.65151 1.37498 6.64865 1.37498 6.6458 1.37498C6.64294 1.37498 6.64008 1.37498 6.63723 1.37498C6.63437 1.37498 6.63152 1.37498 6.62867 1.37498C6.62583 1.37498 6.62298 1.37498 6.62013 1.37498C6.61729 1.37498 6.61445 1.37498 6.61161 1.37498C6.60877 1.37498 6.60593 1.37498 6.60309 1.37498C6.60026 1.37498 6.59742 1.37498 6.59459 1.37498C6.59176 1.37498 6.58893 1.37498 6.5861 1.37498C6.58327 1.37498 6.58045 1.37498 6.57762 1.37498C6.5748 1.37498 6.57198 1.37498 6.56916 1.37498C6.56634 1.37498 6.56353 1.37498 6.56071 1.37498C6.5579 1.37498 6.55508 1.37498 6.55227 1.37498C6.54946 1.37498 6.54665 1.37498 6.54385 1.37498C6.54104 1.37498 6.53824 1.37498 6.53543 1.37498C6.53263 1.37498 6.52983 1.37498 6.52703 1.37498C6.52424 1.37498 6.52144 1.37498 6.51865 1.37498C6.51585 1.37498 6.51306 1.37498 6.51027 1.37498C6.50748 1.37498 6.50469 1.37498 6.50191 1.37498C6.49912 1.37498 6.49634 1.37498 6.49356 1.37498C6.49077 1.37498 6.488 1.37498 6.48522 1.37498C6.48244 1.37498 6.47966 1.37498 6.47689 1.37498C6.47412 1.37498 6.47135 1.37498 6.46858 1.37498C6.46581 1.37498 6.46304 1.37498 6.46027 1.37498C6.45751 1.37498 6.45474 1.37498 6.45198 1.37498C6.44922 1.37498 6.44646 1.37498 6.4437 1.37498C6.44094 1.37498 6.43819 1.37498 6.43544 1.37498C6.43268 1.37498 6.42993 1.37498 6.42718 1.37498C6.42443 1.37498 6.42168 1.37498 6.41894 1.37498C6.41619 1.37498 6.41345 1.37498 6.4107 1.37498C6.40796 1.37498 6.40522 1.37498 6.40248 1.37498C6.39974 1.37498 6.39701 1.37498 6.39427 1.37498C6.39154 1.37498 6.38881 1.37498 6.38608 1.37498C6.38334 1.37498 6.38062 1.37498 6.37789 1.37498C6.37516 1.37498 6.37244 1.37498 6.36971 1.37498C6.36699 1.37498 6.36427 1.37498 6.36155 1.37498C6.35883 1.37498 6.35611 1.37498 6.3534 1.37498C6.35068 1.37498 6.34797 1.37498 6.34525 1.37498C6.34254 1.37498 6.33983 1.37498 6.33712 1.37498C6.33441 1.37498 6.33171 1.37498 6.329 1.37498C6.3263 1.37498 6.3236 1.37498 6.32089 1.37498C6.31819 1.37498 6.31549 1.37498 6.3128 1.37498C6.3101 1.37498 6.3074 1.37498 6.30471 1.37498C6.30202 1.37498 6.29932 1.37498 6.29663 1.37498C6.29394 1.37498 6.29125 1.37498 6.28857 1.37498C6.28588 1.37498 6.2832 1.37498 6.28051 1.37498C6.27783 1.37498 6.27515 1.37498 6.27247 1.37498C6.26979 1.37498 6.26711 1.37498 6.26443 1.37498C6.26176 1.37498 6.25908 1.37498 6.25641 1.37498C6.25374 1.37498 6.25107 1.37498 6.2484 1.37498C6.24573 1.37498 6.24306 1.37498 6.24039 1.37498C6.23773 1.37498 6.23506 1.37498 6.2324 1.37498C6.22974 1.37498 6.22708 1.37498 6.22442 1.37498C6.22176 1.37498 6.2191 1.37498 6.21644 1.37498C6.21379 1.37498 6.21113 1.37498 6.20848 1.37498C6.20583 1.37498 6.20318 1.37498 6.20053 1.37498C6.19788 1.37498 6.19523 1.37498 6.19259 1.37498C6.18994 1.37498 6.1873 1.37498 6.18465 1.37498C6.18201 1.37498 6.17937 1.37498 6.17673 1.37498C6.17409 1.37498 6.17145 1.37498 6.16882 1.37498C6.16618 1.37498 6.16355 1.37498 6.16092 1.37498C6.15828 1.37498 6.15565 1.37498 6.15302 1.37498C6.15039 1.37498 6.14776 1.37498 6.14514 1.37498C6.14251 1.37498 6.13989 1.37498 6.13726 1.37498C6.13464 1.37498 6.13202 1.37498 6.1294 1.37498C6.12678 1.37498 6.12416 1.37498 6.12154 1.37498C6.11893 1.37498 6.11631 1.37498 6.1137 1.37498C6.11108 1.37498 6.10847 1.37498 6.10586 1.37498C6.10325 1.37498 6.10064 1.37498 6.09803 1.37498C6.09542 1.37498 6.09282 1.37498 6.09021 1.37498C6.08761 1.37498 6.085 1.37498 6.0824 1.37498C6.0798 1.37498 6.0772 1.37498 6.0746 1.37498C6.072 1.37498 6.06941 1.37498 6.06681 1.37498C6.06421 1.37498 6.06162 1.37498 6.05903 1.37498C6.05643 1.37498 6.05384 1.37498 6.05125 1.37498C6.04866 1.37498 6.04607 1.37498 6.04349 1.37498C6.0409 1.37498 6.03831 1.37498 6.03573 1.37498C6.03315 1.37498 6.03056 1.37498 6.02798 1.37498C6.0254 1.37498 6.02282 1.37498 6.02024 1.37498C6.01766 1.37498 6.01509 1.37498 6.01251 1.37498C6.00994 1.37498 6.00736 1.37498 6.00479 1.37498C6.00222 1.37498 5.99965 1.37498 5.99708 1.37498C5.99451 1.37498 5.99194 1.37498 5.98937 1.37498C5.9868 1.37498 5.98424 1.37498 5.98167 1.37498C5.97911 1.37498 5.97655 1.37498 5.97398 1.37498C5.97142 1.37498 5.96886 1.37498 5.9663 1.37498C5.96374 1.37498 5.96119 1.37498 5.95863 1.37498C5.95607 1.37498 5.95352 1.37498 5.95097 1.37498C5.94841 1.37498 5.94586 1.37498 5.94331 1.37498C5.94076 1.37498 5.93821 1.37498 5.93566 1.37498C5.93311 1.37498 5.93056 1.37498 5.92802 1.37498C5.92547 1.37498 5.92293 1.37498 5.92039 1.37498C5.91784 1.37498 5.9153 1.37498 5.91276 1.37498C5.91022 1.37498 5.90768 1.37498 5.90514 1.37498C5.9026 1.37498 5.90007 1.37498 5.89753 1.37498C5.895 1.37498 5.89246 1.37498 5.88993 1.37498C5.8874 1.37498 5.88486 1.37498 5.88233 1.37498C5.8798 1.37498 5.87727 1.37498 5.87475 1.37498C5.87222 1.37498 5.86969 1.37498 5.86717 1.37498C5.86464 1.37498 5.86212 1.37498 5.85959 1.37498C5.85707 1.37498 5.85455 1.37498 5.85203 1.37498C5.84951 1.37498 5.84699 1.37498 5.84447 1.37498C5.84195 1.37498 5.83943 1.37498 5.83692 1.37498C5.8344 1.37498 5.83189 1.37498 5.82937 1.37498C5.82686 1.37498 5.82435 1.37498 5.82184 1.37498C5.81932 1.37498 5.81681 1.37498 5.8143 1.37498C5.8118 1.37498 5.80929 1.37498 5.80678 1.37498C5.80427 1.37498 5.80177 1.37498 5.79926 1.37498C5.79676 1.37498 5.79426 1.37498 5.79175 1.37498C5.78925 1.37498 5.78675 1.37498 5.78425 1.37498C5.78175 1.37498 5.77925 1.37498 5.77675 1.37498C5.77426 1.37498 5.77176 1.37498 5.76926 1.37498C5.76677 1.37498 5.76427 1.37498 5.76178 1.37498C5.75929 1.37498 5.75679 1.37498 5.7543 1.37498C5.75181 1.37498 5.74932 1.37498 5.74683 1.37498C5.74434 1.37498 5.74185 1.37498 5.73937 1.37498C5.73688 1.37498 5.73439 1.37498 5.73191 1.37498C5.72942 1.37498 5.72694 1.37498 5.72446 1.37498C5.72197 1.37498 5.71949 1.37498 5.71701 1.37498C5.71453 1.37498 5.71205 1.37498 5.70957 1.37498C5.70709 1.37498 5.70461 1.37498 5.70214 1.37498C5.69966 1.37498 5.69718 1.37498 5.69471 1.37498C5.69223 1.37498 5.68976 1.37498 5.68729 1.37498C5.68481 1.37498 5.68234 1.37498 5.67987 1.37498C5.6774 1.37498 5.67493 1.37498 5.67246 1.37498C5.66999 1.37498 5.66752 1.37498 5.66505 1.37498C5.66259 1.37498 5.66012 1.37498 5.65766 1.37498C5.65519 1.37498 5.65273 1.37498 5.65026 1.37498C5.6478 1.37498 5.64534 1.37498 5.64287 1.37498C5.64041 1.37498 5.63795 1.37498 5.63549 1.37498C5.63303 1.37498 5.63057 1.37498 5.62811 1.37498C5.62566 1.37498 5.6232 1.37498 5.62074 1.37498C5.61829 1.37498 5.61583 1.37498 5.61338 1.37498C5.61092 1.37498 5.60847 1.37498 5.60601 1.37498C5.60356 1.37498 5.60111 1.37498 5.59866 1.37498C5.59621 1.37498 5.59376 1.37498 5.59131 1.37498C5.58886 1.37498 5.58641 1.37498 5.58396 1.37498C5.58151 1.37498 5.57907 1.37498 5.57662 1.37498C5.57417 1.37498 5.57173 1.37498 5.56928 1.37498C5.56684 1.37498 5.56439 1.37498 5.56195 1.37498C5.55951 1.37498 5.55707 1.37498 5.55463 1.37498C5.55218 1.37498 5.54974 1.37498 5.5473 1.37498C5.54486 1.37498 5.54242 1.37498 5.53999 1.37498C5.53755 1.37498 5.53511 1.37498 5.53267 1.37498C5.53024 1.37498 5.5278 1.37498 5.52537 1.37498C5.52293 1.37498 5.5205 1.37498 5.51806 1.37498C5.51563 1.37498 5.5132 1.37498 5.51076 1.37498C5.50833 1.37498 5.5059 1.37498 5.50347 1.37498C5.50104 1.37498 5.49861 1.37498 5.49618 1.37498C5.49375 1.37498 5.49132 1.37498 5.48889 1.37498C5.48646 1.37498 5.48404 1.37498 5.48161 1.37498C5.47918 1.37498 5.47676 1.37498 5.47433 1.37498C5.47191 1.37498 5.46948 1.37498 5.46706 1.37498C5.46463 1.37498 5.46221 1.37498 5.45979 1.37498C5.45737 1.37498 5.45494 1.37498 5.45252 1.37498C5.4501 1.37498 5.44768 1.37498 5.44526 1.37498C5.44284 1.37498 5.44042 1.37498 5.438 1.37498C5.43558 1.37498 5.43316 1.37498 5.43075 1.37498C5.42833 1.37498 5.42591 1.37498 5.4235 1.37498C5.42108 1.37498 5.41866 1.37498 5.41625 1.37498C5.41383 1.37498 5.41142 1.37498 5.409 1.37498C5.40659 1.37498 5.40418 1.37498 5.40176 1.37498C5.39935 1.37498 5.39694 1.37498 5.39453 1.37498C5.39212 1.37498 5.3897 1.37498 5.38729 1.37498C5.38488 1.37498 5.38247 1.37498 5.38006 1.37498C5.37765 1.37498 5.37525 1.37498 5.37284 1.37498C5.37043 1.37498 5.36802 1.37498 5.36561 1.37498C5.36321 1.37498 5.3608 1.37498 5.35839 1.37498C5.35599 1.37498 5.35358 1.37498 5.35118 1.37498C5.34877 1.37498 5.34637 1.37498 5.34396 1.37498C5.34156 1.37498 5.33915 1.37498 5.33675 1.37498C5.33435 1.37498 5.33194 1.37498 5.32954 1.37498C5.32714 1.37498 5.32474 1.37498 5.32234 1.37498C5.31993 1.37498 5.31753 1.37498 5.31513 1.37498C5.31273 1.37498 5.31033 1.37498 5.30793 1.37498C5.30553 1.37498 5.30313 1.37498 5.30073 1.37498C5.29834 1.37498 5.29594 1.37498 5.29354 1.37498C5.29114 1.37498 5.28874 1.37498 5.28635 1.37498C5.28395 1.37498 5.28155 1.37498 5.27916 1.37498C5.27676 1.37498 5.27436 1.37498 5.27197 1.37498C5.26957 1.37498 5.26718 1.37498 5.26478 1.37498C5.26239 1.37498 5.25999 1.37498 5.2576 1.37498C5.25521 1.37498 5.25281 1.37498 5.25042 1.37498C5.24803 1.37498 5.24563 1.37498 5.24324 1.37498C5.24085 1.37498 5.23846 1.37498 5.23606 1.37498C5.23367 1.37498 5.23128 1.37498 5.22889 1.37498C5.2265 1.37498 5.22411 1.37498 5.22172 1.37498C5.21933 1.37498 5.21693 1.37498 5.21454 1.37498C5.21215 1.37498 5.20977 1.37498 5.20738 1.37498C5.20499 1.37498 5.2026 1.37498 5.20021 1.37498C5.19782 1.37498 5.19543 1.37498 5.19304 1.37498C5.19065 1.37498 5.18827 1.37498 5.18588 1.37498C5.18349 1.37498 5.1811 1.37498 5.17872 1.37498C5.17633 1.37498 5.17394 1.37498 5.17156 1.37498C5.16917 1.37498 5.16678 1.37498 5.1644 1.37498C5.16201 1.37498 5.15963 1.37498 5.15724 1.37498C5.15485 1.37498 5.15247 1.37498 5.15008 1.37498C5.1477 1.37498 5.14531 1.37498 5.14293 1.37498C5.14054 1.37498 5.13816 1.37498 5.13577 1.37498C5.13339 1.37498 5.131 1.37498 5.12862 1.37498C5.12624 1.37498 5.12385 1.37498 5.12147 1.37498C5.11909 1.37498 5.1167 1.37498 5.11432 1.37498C5.11194 1.37498 5.10955 1.37498 5.10717 1.37498C5.10479 1.37498 5.1024 1.37498 5.10002 1.37498C5.09764 1.37498 5.09525 1.37498 5.09287 1.37498C5.09049 1.37498 5.08811 1.37498 5.08573 1.37498C5.08334 1.37498 5.08096 1.37498 5.07858 1.37498C5.0762 1.37498 5.07381 1.37498 5.07143 1.37498C5.06905 1.37498 5.06667 1.37498 5.06429 1.37498C5.06191 1.37498 5.05953 1.37498 5.05714 1.37498C5.05476 1.37498 5.05238 1.37498 5.05 1.37498C5.04762 1.37498 5.04524 1.37498 5.04286 1.37498C5.04047 1.37498 5.03809 1.37498 5.03571 1.37498C5.03333 1.37498 5.03095 1.37498 5.02857 1.37498C5.02619 1.37498 5.02381 1.37498 5.02143 1.37498C5.01905 1.37498 5.01667 1.37498 5.01428 1.37498C5.0119 1.37498 5.00952 1.37498 5.00714 1.37498C5.00476 1.37498 5.00238 1.37498 5 1.37498C4.99762 1.37498 4.99524 1.37498 4.99286 1.37498C4.99048 1.37498 4.9881 1.37498 4.98572 1.37498C4.98333 1.37498 4.98095 1.37498 4.97857 1.37498C4.97619 1.37498 4.97381 1.37498 4.97143 1.37498C4.96905 1.37498 4.96667 1.37498 4.96429 1.37498C4.96191 1.37498 4.95953 1.37498 4.95714 1.37498C4.95476 1.37498 4.95238 1.37498 4.95 1.37498C4.94762 1.37498 4.94524 1.37498 4.94286 1.37498C4.94047 1.37498 4.93809 1.37498 4.93571 1.37498C4.93333 1.37498 4.93095 1.37498 4.92857 1.37498C4.92619 1.37498 4.9238 1.37498 4.92142 1.37498C4.91904 1.37498 4.91666 1.37498 4.91427 1.37498C4.91189 1.37498 4.90951 1.37498 4.90713 1.37498C4.90475 1.37498 4.90236 1.37498 4.89998 1.37498C4.8976 1.37498 4.89521 1.37498 4.89283 1.37498C4.89045 1.37498 4.88806 1.37498 4.88568 1.37498C4.8833 1.37498 4.88091 1.37498 4.87853 1.37498C4.87615 1.37498 4.87376 1.37498 4.87138 1.37498C4.869 1.37498 4.86661 1.37498 4.86423 1.37498C4.86184 1.37498 4.85946 1.37498 4.85707 1.37498C4.85469 1.37498 4.8523 1.37498 4.84992 1.37498C4.84753 1.37498 4.84515 1.37498 4.84276 1.37498C4.84037 1.37498 4.83799 1.37498 4.8356 1.37498C4.83322 1.37498 4.83083 1.37498 4.82844 1.37498C4.82606 1.37498 4.82367 1.37498 4.82128 1.37498C4.8189 1.37498 4.81651 1.37498 4.81412 1.37498C4.81173 1.37498 4.80935 1.37498 4.80696 1.37498C4.80457 1.37498 4.80218 1.37498 4.79979 1.37498C4.7974 1.37498 4.79501 1.37498 4.79262 1.37498C4.79023 1.37498 4.78785 1.37498 4.78546 1.37498C4.78307 1.37498 4.78067 1.37498 4.77828 1.37498C4.77589 1.37498 4.7735 1.37498 4.77111 1.37498C4.76872 1.37498 4.76633 1.37498 4.76394 1.37498C4.76154 1.37498 4.75915 1.37498 4.75676 1.37498C4.75437 1.37498 4.75197 1.37498 4.74958 1.37498C4.74719 1.37498 4.74479 1.37498 4.7424 1.37498C4.74001 1.37498 4.73761 1.37498 4.73522 1.37498C4.73282 1.37498 4.73043 1.37498 4.72803 1.37498C4.72564 1.37498 4.72324 1.37498 4.72084 1.37498C4.71845 1.37498 4.71605 1.37498 4.71365 1.37498C4.71126 1.37498 4.70886 1.37498 4.70646 1.37498C4.70406 1.37498 4.70166 1.37498 4.69927 1.37498C4.69687 1.37498 4.69447 1.37498 4.69207 1.37498C4.68967 1.37498 4.68727 1.37498 4.68487 1.37498C4.68247 1.37498 4.68007 1.37498 4.67766 1.37498C4.67526 1.37498 4.67286 1.37498 4.67046 1.37498C4.66806 1.37498 4.66565 1.37498 4.66325 1.37498C4.66085 1.37498 4.65844 1.37498 4.65604 1.37498C4.65363 1.37498 4.65123 1.37498 4.64882 1.37498C4.64642 1.37498 4.64401 1.37498 4.64161 1.37498C4.6392 1.37498 4.63679 1.37498 4.63439 1.37498C4.63198 1.37498 4.62957 1.37498 4.62716 1.37498C4.62475 1.37498 4.62235 1.37498 4.61994 1.37498C4.61753 1.37498 4.61512 1.37498 4.61271 1.37498C4.6103 1.37498 4.60788 1.37498 4.60547 1.37498C4.60306 1.37498 4.60065 1.37498 4.59824 1.37498C4.59582 1.37498 4.59341 1.37498 4.591 1.37498C4.58858 1.37498 4.58617 1.37498 4.58375 1.37498C4.58134 1.37498 4.57892 1.37498 4.5765 1.37498C4.57409 1.37498 4.57167 1.37498 4.56925 1.37498C4.56684 1.37498 4.56442 1.37498 4.562 1.37498C4.55958 1.37498 4.55716 1.37498 4.55474 1.37498C4.55232 1.37498 4.5499 1.37498 4.54748 1.37498C4.54506 1.37498 4.54263 1.37498 4.54021 1.37498C4.53779 1.37498 4.53537 1.37498 4.53294 1.37498C4.53052 1.37498 4.52809 1.37498 4.52567 1.37498C4.52324 1.37498 4.52082 1.37498 4.51839 1.37498C4.51596 1.37498 4.51354 1.37498 4.51111 1.37498C4.50868 1.37498 4.50625 1.37498 4.50382 1.37498C4.50139 1.37498 4.49896 1.37498 4.49653 1.37498C4.4941 1.37498 4.49167 1.37498 4.48924 1.37498C4.4868 1.37498 4.48437 1.37498 4.48194 1.37498C4.4795 1.37498 4.47707 1.37498 4.47463 1.37498C4.4722 1.37498 4.46976 1.37498 4.46733 1.37498C4.46489 1.37498 4.46245 1.37498 4.46001 1.37498C4.45758 1.37498 4.45514 1.37498 4.4527 1.37498C4.45026 1.37498 4.44782 1.37498 4.44537 1.37498C4.44293 1.37498 4.44049 1.37498 4.43805 1.37498C4.43561 1.37498 4.43316 1.37498 4.43072 1.37498C4.42827 1.37498 4.42583 1.37498 4.42338 1.37498C4.42093 1.37498 4.41849 1.37498 4.41604 1.37498C4.41359 1.37498 4.41114 1.37498 4.40869 1.37498C4.40624 1.37498 4.40379 1.37498 4.40134 1.37498C4.39889 1.37498 4.39644 1.37498 4.39399 1.37498C4.39153 1.37498 4.38908 1.37498 4.38662 1.37498C4.38417 1.37498 4.38171 1.37498 4.37926 1.37498C4.3768 1.37498 4.37434 1.37498 4.37189 1.37498C4.36943 1.37498 4.36697 1.37498 4.36451 1.37498C4.36205 1.37498 4.35959 1.37498 4.35713 1.37498C4.35466 1.37498 4.3522 1.37498 4.34974 1.37498C4.34727 1.37498 4.34481 1.37498 4.34234 1.37498C4.33988 1.37498 4.33741 1.37498 4.33495 1.37498C4.33248 1.37498 4.33001 1.37498 4.32754 1.37498C4.32507 1.37498 4.3226 1.37498 4.32013 1.37498C4.31766 1.37498 4.31519 1.37498 4.31271 1.37498C4.31024 1.37498 4.30777 1.37498 4.30529 1.37498C4.30282 1.37498 4.30034 1.37498 4.29786 1.37498C4.29539 1.37498 4.29291 1.37498 4.29043 1.37498C4.28795 1.37498 4.28547 1.37498 4.28299 1.37498C4.28051 1.37498 4.27803 1.37498 4.27554 1.37498C4.27306 1.37498 4.27058 1.37498 4.26809 1.37498C4.26561 1.37498 4.26312 1.37498 4.26063 1.37498C4.25815 1.37498 4.25566 1.37498 4.25317 1.37498C4.25068 1.37498 4.24819 1.37498 4.2457 1.37498C4.24321 1.37498 4.24071 1.37498 4.23822 1.37498C4.23573 1.37498 4.23323 1.37498 4.23074 1.37498C4.22824 1.37498 4.22574 1.37498 4.22325 1.37498C4.22075 1.37498 4.21825 1.37498 4.21575 1.37498C4.21325 1.37498 4.21075 1.37498 4.20825 1.37498C4.20574 1.37498 4.20324 1.37498 4.20074 1.37498C4.19823 1.37498 4.19573 1.37498 4.19322 1.37498C4.19071 1.37498 4.1882 1.37498 4.1857 1.37498C4.18319 1.37498 4.18068 1.37498 4.17816 1.37498C4.17565 1.37498 4.17314 1.37498 4.17063 1.37498C4.16811 1.37498 4.1656 1.37498 4.16308 1.37498C4.16057 1.37498 4.15805 1.37498 4.15553 1.37498C4.15301 1.37498 4.15049 1.37498 4.14797 1.37498C4.14545 1.37498 4.14293 1.37498 4.14041 1.37498C4.13788 1.37498 4.13536 1.37498 4.13283 1.37498C4.13031 1.37498 4.12778 1.37498 4.12525 1.37498C4.12273 1.37498 4.1202 1.37498 4.11767 1.37498C4.11513 1.37498 4.1126 1.37498 4.11007 1.37498C4.10754 1.37498 4.105 1.37498 4.10247 1.37498C4.09993 1.37498 4.0974 1.37498 4.09486 1.37498C4.09232 1.37498 4.08978 1.37498 4.08724 1.37498C4.0847 1.37498 4.08216 1.37498 4.07961 1.37498C4.07707 1.37498 4.07453 1.37498 4.07198 1.37498C4.06944 1.37498 4.06689 1.37498 4.06434 1.37498C4.06179 1.37498 4.05924 1.37498 4.05669 1.37498C4.05414 1.37498 4.05159 1.37498 4.04903 1.37498C4.04648 1.37498 4.04393 1.37498 4.04137 1.37498C4.03881 1.37498 4.03626 1.37498 4.0337 1.37498C4.03114 1.37498 4.02858 1.37498 4.02602 1.37498C4.02345 1.37498 4.02089 1.37498 4.01833 1.37498C4.01576 1.37498 4.0132 1.37498 4.01063 1.37498C4.00806 1.37498 4.00549 1.37498 4.00292 1.37498C4.00035 1.37498 3.99778 1.37498 3.99521 1.37498C3.99264 1.37498 3.99006 1.37498 3.98749 1.37498C3.98491 1.37498 3.98234 1.37498 3.97976 1.37498C3.97718 1.37498 3.9746 1.37498 3.97202 1.37498C3.96944 1.37498 3.96685 1.37498 3.96427 1.37498C3.96169 1.37498 3.9591 1.37498 3.95651 1.37498C3.95393 1.37498 3.95134 1.37498 3.94875 1.37498C3.94616 1.37498 3.94357 1.37498 3.94097 1.37498C3.93838 1.37498 3.93579 1.37498 3.93319 1.37498C3.93059 1.37498 3.928 1.37498 3.9254 1.37498C3.9228 1.37498 3.9202 1.37498 3.9176 1.37498C3.915 1.37498 3.91239 1.37498 3.90979 1.37498C3.90718 1.37498 3.90458 1.37498 3.90197 1.37498C3.89936 1.37498 3.89675 1.37498 3.89414 1.37498C3.89153 1.37498 3.88892 1.37498 3.8863 1.37498C3.88369 1.37498 3.88107 1.37498 3.87846 1.37498C3.87584 1.37498 3.87322 1.37498 3.8706 1.37498C3.86798 1.37498 3.86536 1.37498 3.86274 1.37498C3.86011 1.37498 3.85749 1.37498 3.85486 1.37498C3.85224 1.37498 3.84961 1.37498 3.84698 1.37498C3.84435 1.37498 3.84172 1.37498 3.83908 1.37498C3.83645 1.37498 3.83382 1.37498 3.83118 1.37498C3.82854 1.37498 3.82591 1.37498 3.82327 1.37498C3.82063 1.37498 3.81799 1.37498 3.81535 1.37498C3.8127 1.37498 3.81006 1.37498 3.80741 1.37498C3.80477 1.37498 3.80212 1.37498 3.79947 1.37498C3.79682 1.37498 3.79417 1.37498 3.79152 1.37498C3.78887 1.37498 3.78621 1.37498 3.78356 1.37498C3.7809 1.37498 3.77824 1.37498 3.77558 1.37498C3.77292 1.37498 3.77026 1.37498 3.7676 1.37498C3.76494 1.37498 3.76227 1.37498 3.75961 1.37498C3.75694 1.37498 3.75427 1.37498 3.7516 1.37498C3.74893 1.37498 3.74626 1.37498 3.74359 1.37498C3.74092 1.37498 3.73824 1.37498 3.73557 1.37498C3.73289 1.37498 3.73021 1.37498 3.72753 1.37498C3.72485 1.37498 3.72217 1.37498 3.71949 1.37498C3.7168 1.37498 3.71412 1.37498 3.71143 1.37498C3.70875 1.37498 3.70606 1.37498 3.70337 1.37498C3.70068 1.37498 3.69798 1.37498 3.69529 1.37498C3.6926 1.37498 3.6899 1.37498 3.6872 1.37498C3.68451 1.37498 3.68181 1.37498 3.67911 1.37498C3.6764 1.37498 3.6737 1.37498 3.671 1.37498C3.66829 1.37498 3.66559 1.37498 3.66288 1.37498C3.66017 1.37498 3.65746 1.37498 3.65475 1.37498C3.65203 1.37498 3.64932 1.37498 3.6466 1.37498C3.64389 1.37498 3.64117 1.37498 3.63845 1.37498C3.63573 1.37498 3.63301 1.37498 3.63029 1.37498C3.62756 1.37498 3.62484 1.37498 3.62211 1.37498C3.61938 1.37498 3.61666 1.37498 3.61392 1.37498C3.61119 1.37498 3.60846 1.37498 3.60573 1.37498C3.60299 1.37498 3.60026 1.37498 3.59752 1.37498C3.59478 1.37498 3.59204 1.37498 3.5893 1.37498C3.58655 1.37498 3.58381 1.37498 3.58106 1.37498C3.57832 1.37498 3.57557 1.37498 3.57282 1.37498C3.57007 1.37498 3.56732 1.37498 3.56456 1.37498C3.56181 1.37498 3.55906 1.37498 3.5563 1.37498C3.55354 1.37498 3.55078 1.37498 3.54802 1.37498C3.54526 1.37498 3.54249 1.37498 3.53973 1.37498C3.53696 1.37498 3.53419 1.37498 3.53142 1.37498C3.52865 1.37498 3.52588 1.37498 3.52311 1.37498C3.52034 1.37498 3.51756 1.37498 3.51478 1.37498C3.512 1.37498 3.50923 1.37498 3.50644 1.37498C3.50366 1.37498 3.50088 1.37498 3.49809 1.37498C3.49531 1.37498 3.49252 1.37498 3.48973 1.37498C3.48694 1.37498 3.48415 1.37498 3.48135 1.37498C3.47856 1.37498 3.47576 1.37498 3.47297 1.37498C3.47017 1.37498 3.46737 1.37498 3.46457 1.37498C3.46176 1.37498 3.45896 1.37498 3.45615 1.37498C3.45335 1.37498 3.45054 1.37498 3.44773 1.37498C3.44492 1.37498 3.4421 1.37498 3.43929 1.37498C3.43647 1.37498 3.43366 1.37498 3.43084 1.37498C3.42802 1.37498 3.4252 1.37498 3.42238 1.37498C3.41955 1.37498 3.41673 1.37498 3.4139 1.37498C3.41107 1.37498 3.40824 1.37498 3.40541 1.37498C3.40258 1.37498 3.39974 1.37498 3.39691 1.37498C3.39407 1.37498 3.39123 1.37498 3.38839 1.37498C3.38555 1.37498 3.38271 1.37498 3.37987 1.37498C3.37702 1.37498 3.37417 1.37498 3.37133 1.37498C3.36848 1.37498 3.36563 1.37498 3.36277 1.37498C3.35992 1.37498 3.35706 1.37498 3.3542 1.37498C3.35135 1.37498 3.34849 1.37498 3.34562 1.37498C3.34276 1.37498 3.3399 1.37498 3.33703 1.37498C3.33416 1.37498 3.3313 1.37498 3.32842 1.37498C3.32555 1.37498 3.32268 1.37498 3.3198 1.37498C3.31693 1.37498 3.31405 1.37498 3.31117 1.37498C3.30829 1.37498 3.30541 1.37498 3.30252 1.37498C3.29964 1.37498 3.29675 1.37498 3.29386 1.37498C3.29097 1.37498 3.28808 1.37498 3.28519 1.37498C3.28229 1.37498 3.2794 1.37498 3.2765 1.37498C3.2736 1.37498 3.2707 1.37498 3.26779 1.37498C3.26489 1.37498 3.26199 1.37498 3.25908 1.37498C3.25617 1.37498 3.25326 1.37498 3.25035 1.37498C3.24744 1.37498 3.24452 1.37498 3.2416 1.37498C3.23869 1.37498 3.23577 1.37498 3.23285 1.37498C3.22992 1.37498 3.227 1.37498 3.22407 1.37498C3.22115 1.37498 3.21822 1.37498 3.21529 1.37498C3.21236 1.37498 3.20942 1.37498 3.20649 1.37498C3.20355 1.37498 3.20061 1.37498 3.19767 1.37498C3.19473 1.37498 3.19179 1.37498 3.18884 1.37498C3.1859 1.37498 3.18295 1.37498 3.18 1.37498C3.17705 1.37498 3.1741 1.37498 3.17114 1.37498C3.16818 1.37498 3.16523 1.37498 3.16227 1.37498C3.15931 1.37498 3.15634 1.37498 3.15338 1.37498C3.15041 1.37498 3.14745 1.37498 3.14448 1.37498C3.14151 1.37498 3.13854 1.37498 3.13556 1.37498C3.13259 1.37498 3.12961 1.37498 3.12663 1.37498C3.12365 1.37498 3.12067 1.37498 3.11768 1.37498C3.1147 1.37498 3.11171 1.37498 3.10872 1.37498C3.10573 1.37498 3.10274 1.37498 3.09975 1.37498C3.09675 1.37498 3.09375 1.37498 3.09075 1.37498C3.08775 1.37498 3.08475 1.37498 3.08175 1.37498C3.07874 1.37498 3.07574 1.37498 3.07273 1.37498C3.06972 1.37498 3.0667 1.37498 3.06369 1.37498C3.06067 1.37498 3.05766 1.37498 3.05464 1.37498C3.05162 1.37498 3.04859 1.37498 3.04557 1.37498C3.04254 1.37498 3.03952 1.37498 3.03649 1.37498C3.03346 1.37498 3.03042 1.37498 3.02739 1.37498C3.02435 1.37498 3.02132 1.37498 3.01827 1.37498C3.01523 1.37498 3.01219 1.37498 3.00915 1.37498C3.0061 1.37498 3.00305 1.37498 3 1.37498V2.12498ZM9.125 4.24998V8.24998H9.875V4.24998H9.125ZM7 10.375H3V11.125H7V10.375ZM0.875 8.24998V4.24998H0.125V8.24998H0.875ZM3 10.375C1.8264 10.375 0.875 9.42359 0.875 8.24998H0.125C0.125 9.8378 1.41218 11.125 3 11.125V10.375ZM9.125 8.24998C9.125 9.42359 8.1736 10.375 7 10.375V11.125C8.58782 11.125 9.875 9.8378 9.875 8.24998H9.125ZM7 2.12498C8.1736 2.12498 9.125 3.07638 9.125 4.24998H9.875C9.875 2.66217 8.58782 1.37498 7 1.37498V2.12498ZM0.875146 2.31331C0.409456 2.82399 0.125 3.5042 0.125 4.24998H0.875C0.875 3.69838 1.08468 3.19661 1.42933 2.81866L0.875146 2.31331Z" fill="white"/>
<path id="Line" d="M2 4.24998H9.5" stroke="white" stroke-width="0.75" stroke-linecap="round" stroke-linejoin="round"/>
<path id="Line_2" d="M7.25 0.999985L7.25 2.49998" stroke="white" stroke-width="0.75" stroke-linecap="round" stroke-linejoin="round"/>
<path id="Line_3" d="M2.75 0.999985L2.75 2.49998" stroke="white" stroke-width="0.75" stroke-linecap="round" stroke-linejoin="round"/>
<g id="Group 220">
<g id="Group 218">
<path id="Line_4" d="M2.25 6.25H2.75" stroke="white" stroke-width="0.75" stroke-linecap="round" stroke-linejoin="round"/>
<path id="Line_5" d="M4.75 6.25H5.25" stroke="white" stroke-width="0.75" stroke-linecap="round" stroke-linejoin="round"/>
<path id="Line_6" d="M7.25 6.25H7.75" stroke="white" stroke-width="0.75" stroke-linecap="round" stroke-linejoin="round"/>
</g>
<g id="Group 219">
<path id="Line_7" d="M2.25 8.25H2.75" stroke="white" stroke-width="0.75" stroke-linecap="round" stroke-linejoin="round"/>
<path id="Line_8" d="M4.75 8.25H5.25" stroke="white" stroke-width="0.75" stroke-linecap="round" stroke-linejoin="round"/>
<path id="Line_9" d="M7.25 8.25H7.75" stroke="white" stroke-width="0.75" stroke-linecap="round" stroke-linejoin="round"/>
</g>
</g>
</g>
</svg>
