<svg width="22" height="20" viewBox="0 0 22 20" fill="none" xmlns="http://www.w3.org/2000/svg">
<g id="Cart">
<path id="Subtract" fill-rule="evenodd" clip-rule="evenodd" d="M0.264465 0.852813C0.345699 0.446644 0.740818 0.183231 1.14699 0.264465L2.19635 0.474337C3.3816 0.711387 4.27311 1.69458 4.39338 2.8973L4.47864 3.7499H18.0541C20.0384 3.7499 21.4943 5.61463 21.0131 7.53963L19.8903 12.0307C19.4173 13.9226 17.7174 15.2499 15.7672 15.2499H6.77425C5.3822 15.2499 4.20969 14.2097 4.04384 12.8276L3.05436 4.5819L2.90083 3.04655C2.84616 2.49986 2.44092 2.05296 1.90217 1.94521L0.852813 1.73534C0.446644 1.6541 0.183231 1.25898 0.264465 0.852813ZM7.99976 10.7498C7.58554 10.7498 7.24976 11.0855 7.24976 11.4998C7.24976 11.914 7.58554 12.2498 7.99976 12.2498H11.9998C12.414 12.2498 12.7498 11.914 12.7498 11.4998C12.7498 11.0855 12.414 10.7498 11.9998 10.7498H7.99976Z" fill="#334A34" stroke="#334A34" stroke-width="1.5"/>
<circle id="Ellipse 39" cx="7.5" cy="18" r="1.5" fill="#334A34" stroke="#334A34" stroke-width="1.5"/>
<circle id="Ellipse 40" cx="16.5" cy="18" r="1.5" fill="#334A34" stroke="#334A34" stroke-width="1.5"/>
</g>
</svg>
