<svg width="13" height="13" viewBox="0 0 13 13" fill="none" xmlns="http://www.w3.org/2000/svg">
<g id="Tick Circle">
<path id="Vector" fill-rule="evenodd" clip-rule="evenodd" d="M6.5 12.75C9.95178 12.75 12.75 9.95178 12.75 6.5C12.75 3.04822 9.95178 0.25 6.5 0.25C3.04822 0.25 0.25 3.04822 0.25 6.5C0.25 9.95178 3.04822 12.75 6.5 12.75ZM9.97423 4.93767C10.1469 4.74479 10.1305 4.44845 9.93767 4.27577C9.74479 4.10308 9.44845 4.11945 9.27577 4.31233L7.17003 6.66432C6.74335 7.1409 6.456 7.46017 6.21032 7.66666C5.97629 7.86337 5.83883 7.90625 5.71875 7.90625C5.59867 7.90625 5.46121 7.86337 5.22718 7.66666C4.9815 7.46017 4.69415 7.1409 4.26747 6.66432L3.72423 6.05756C3.55155 5.86468 3.25521 5.84831 3.06233 6.02099C2.86945 6.19368 2.85308 6.49002 3.02577 6.6829L3.59221 7.31558C3.98961 7.75949 4.32109 8.12976 4.62397 8.38433C4.94437 8.65363 5.28995 8.84375 5.71875 8.84375C6.14755 8.84375 6.49313 8.65363 6.81353 8.38433C7.11641 8.12976 7.44789 7.75949 7.84529 7.31558L9.97423 4.93767Z" fill="#334A34"/>
</g>
</svg>
