<svg width="10" height="9" viewBox="0 0 10 9" fill="none" xmlns="http://www.w3.org/2000/svg">
<g id="Danger">
<path id="Subtract" fill-rule="evenodd" clip-rule="evenodd" d="M5.37576 0.506478C5.1277 0.456866 4.87226 0.456866 4.6242 0.506478C4.07299 0.61672 3.59799 0.963446 3.325 1.45483L0.747535 6.09427C0.598842 6.36191 0.520813 6.66304 0.520813 6.96922C0.520813 7.96423 1.32743 8.77084 2.32244 8.77084H7.67752C8.67253 8.77084 9.47915 7.96423 9.47915 6.96922C9.47915 6.66304 9.40112 6.36191 9.25242 6.09427L6.67496 1.45483C6.40197 0.963446 5.92697 0.61672 5.37576 0.506478ZM4.99997 5.22919C4.82738 5.22919 4.68747 5.08928 4.68747 4.91669V3.25002C4.68747 3.07743 4.82738 2.93752 4.99997 2.93752C5.17256 2.93752 5.31247 3.07743 5.31247 3.25002V4.91669C5.31247 5.08928 5.17256 5.22919 4.99997 5.22919ZM5.31247 6.37502C5.31247 6.54761 5.17256 6.68752 4.99997 6.68752C4.82738 6.68752 4.68747 6.54761 4.68747 6.37502V6.16669C4.68747 5.9941 4.82738 5.85419 4.99997 5.85419C5.17256 5.85419 5.31247 5.9941 5.31247 6.16669V6.37502Z" fill="white"/>
</g>
</svg>
