<svg width="12" height="13" viewBox="0 0 12 13" fill="none" xmlns="http://www.w3.org/2000/svg">
<g id="Calendar">
<path id="Rectangle 2" d="M1.83422 2.78843C1.99702 2.60989 1.98427 2.33318 1.80573 2.17037C1.62719 2.00756 1.35048 2.02031 1.18767 2.19885L1.83422 2.78843ZM3.66667 1.97914C3.67023 1.97914 3.67378 1.97914 3.67734 1.97914C3.68089 1.97914 3.68444 1.97914 3.68799 1.97914C3.69153 1.97914 3.69508 1.97914 3.69862 1.97914C3.70216 1.97914 3.7057 1.97914 3.70923 1.97914C3.71277 1.97914 3.7163 1.97914 3.71983 1.97914C3.72336 1.97914 3.72689 1.97914 3.73041 1.97914C3.73393 1.97914 3.73745 1.97914 3.74097 1.97914C3.74449 1.97914 3.748 1.97914 3.75151 1.97914C3.75502 1.97914 3.75853 1.97914 3.76204 1.97914C3.76554 1.97914 3.76905 1.97914 3.77255 1.97914C3.77605 1.97914 3.77954 1.97914 3.78304 1.97914C3.78653 1.97914 3.79002 1.97914 3.79351 1.97914C3.797 1.97914 3.80048 1.97914 3.80396 1.97914C3.80745 1.97914 3.81092 1.97914 3.8144 1.97914C3.81788 1.97914 3.82135 1.97914 3.82482 1.97914C3.82829 1.97914 3.83176 1.97914 3.83522 1.97914C3.83869 1.97914 3.84215 1.97914 3.84561 1.97914C3.84907 1.97914 3.85253 1.97914 3.85598 1.97914C3.85943 1.97914 3.86288 1.97914 3.86633 1.97914C3.86978 1.97914 3.87322 1.97914 3.87666 1.97914C3.88011 1.97914 3.88355 1.97914 3.88698 1.97914C3.89042 1.97914 3.89385 1.97914 3.89728 1.97914C3.90071 1.97914 3.90414 1.97914 3.90757 1.97914C3.91099 1.97914 3.91442 1.97914 3.91784 1.97914C3.92125 1.97914 3.92467 1.97914 3.92809 1.97914C3.9315 1.97914 3.93491 1.97914 3.93832 1.97914C3.94173 1.97914 3.94514 1.97914 3.94854 1.97914C3.95194 1.97914 3.95534 1.97914 3.95874 1.97914C3.96214 1.97914 3.96553 1.97914 3.96892 1.97914C3.97232 1.97914 3.97571 1.97914 3.97909 1.97914C3.98248 1.97914 3.98587 1.97914 3.98925 1.97914C3.99263 1.97914 3.99601 1.97914 3.99938 1.97914C4.00276 1.97914 4.00613 1.97914 4.0095 1.97914C4.01287 1.97914 4.01624 1.97914 4.01961 1.97914C4.02297 1.97914 4.02634 1.97914 4.0297 1.97914C4.03306 1.97914 4.03642 1.97914 4.03977 1.97914C4.04313 1.97914 4.04648 1.97914 4.04983 1.97914C4.05318 1.97914 4.05652 1.97914 4.05987 1.97914C4.06321 1.97914 4.06656 1.97914 4.0699 1.97914C4.07323 1.97914 4.07657 1.97914 4.07991 1.97914C4.08324 1.97914 4.08657 1.97914 4.0899 1.97914C4.09323 1.97914 4.09656 1.97914 4.09988 1.97914C4.1032 1.97914 4.10653 1.97914 4.10984 1.97914C4.11316 1.97914 4.11648 1.97914 4.11979 1.97914C4.12311 1.97914 4.12642 1.97914 4.12973 1.97914C4.13304 1.97914 4.13634 1.97914 4.13965 1.97914C4.14295 1.97914 4.14625 1.97914 4.14955 1.97914C4.15285 1.97914 4.15614 1.97914 4.15944 1.97914C4.16273 1.97914 4.16602 1.97914 4.16931 1.97914C4.1726 1.97914 4.17589 1.97914 4.17917 1.97914C4.18245 1.97914 4.18574 1.97914 4.18901 1.97914C4.19229 1.97914 4.19557 1.97914 4.19884 1.97914C4.20212 1.97914 4.20539 1.97914 4.20866 1.97914C4.21193 1.97914 4.2152 1.97914 4.21846 1.97914C4.22172 1.97914 4.22499 1.97914 4.22825 1.97914C4.23151 1.97914 4.23476 1.97914 4.23802 1.97914C4.24127 1.97914 4.24452 1.97914 4.24777 1.97914C4.25102 1.97914 4.25427 1.97914 4.25752 1.97914C4.26076 1.97914 4.26401 1.97914 4.26725 1.97914C4.27049 1.97914 4.27373 1.97914 4.27696 1.97914C4.2802 1.97914 4.28343 1.97914 4.28666 1.97914C4.28989 1.97914 4.29312 1.97914 4.29635 1.97914C4.29957 1.97914 4.3028 1.97914 4.30602 1.97914C4.30924 1.97914 4.31246 1.97914 4.31568 1.97914C4.3189 1.97914 4.32211 1.97914 4.32533 1.97914C4.32854 1.97914 4.33175 1.97914 4.33496 1.97914C4.33817 1.97914 4.34137 1.97914 4.34457 1.97914C4.34778 1.97914 4.35098 1.97914 4.35418 1.97914C4.35738 1.97914 4.36058 1.97914 4.36377 1.97914C4.36697 1.97914 4.37016 1.97914 4.37335 1.97914C4.37654 1.97914 4.37973 1.97914 4.38291 1.97914C4.3861 1.97914 4.38928 1.97914 4.39246 1.97914C4.39565 1.97914 4.39882 1.97914 4.402 1.97914C4.40518 1.97914 4.40835 1.97914 4.41153 1.97914C4.4147 1.97914 4.41787 1.97914 4.42104 1.97914C4.42421 1.97914 4.42737 1.97914 4.43054 1.97914C4.4337 1.97914 4.43686 1.97914 4.44002 1.97914C4.44318 1.97914 4.44634 1.97914 4.4495 1.97914C4.45265 1.97914 4.45581 1.97914 4.45896 1.97914C4.46211 1.97914 4.46526 1.97914 4.4684 1.97914C4.47155 1.97914 4.4747 1.97914 4.47784 1.97914C4.48098 1.97914 4.48412 1.97914 4.48726 1.97914C4.4904 1.97914 4.49354 1.97914 4.49667 1.97914C4.49981 1.97914 4.50294 1.97914 4.50607 1.97914C4.5092 1.97914 4.51233 1.97914 4.51546 1.97914C4.51858 1.97914 4.52171 1.97914 4.52483 1.97914C4.52795 1.97914 4.53107 1.97914 4.53419 1.97914C4.53731 1.97914 4.54042 1.97914 4.54354 1.97914C4.54665 1.97914 4.54976 1.97914 4.55288 1.97914C4.55599 1.97914 4.55909 1.97914 4.5622 1.97914C4.56531 1.97914 4.56841 1.97914 4.57151 1.97914C4.57462 1.97914 4.57772 1.97914 4.58081 1.97914C4.58391 1.97914 4.58701 1.97914 4.5901 1.97914C4.5932 1.97914 4.59629 1.97914 4.59938 1.97914C4.60247 1.97914 4.60556 1.97914 4.60865 1.97914C4.61173 1.97914 4.61482 1.97914 4.6179 1.97914C4.62099 1.97914 4.62407 1.97914 4.62715 1.97914C4.63022 1.97914 4.6333 1.97914 4.63638 1.97914C4.63945 1.97914 4.64253 1.97914 4.6456 1.97914C4.64867 1.97914 4.65174 1.97914 4.65481 1.97914C4.65788 1.97914 4.66094 1.97914 4.66401 1.97914C4.66707 1.97914 4.67013 1.97914 4.67319 1.97914C4.67625 1.97914 4.67931 1.97914 4.68237 1.97914C4.68543 1.97914 4.68848 1.97914 4.69153 1.97914C4.69459 1.97914 4.69764 1.97914 4.70069 1.97914C4.70374 1.97914 4.70679 1.97914 4.70983 1.97914C4.71288 1.97914 4.71592 1.97914 4.71896 1.97914C4.72201 1.97914 4.72505 1.97914 4.72809 1.97914C4.73113 1.97914 4.73416 1.97914 4.7372 1.97914C4.74023 1.97914 4.74327 1.97914 4.7463 1.97914C4.74933 1.97914 4.75236 1.97914 4.75539 1.97914C4.75842 1.97914 4.76144 1.97914 4.76447 1.97914C4.76749 1.97914 4.77052 1.97914 4.77354 1.97914C4.77656 1.97914 4.77958 1.97914 4.7826 1.97914C4.78562 1.97914 4.78863 1.97914 4.79165 1.97914C4.79466 1.97914 4.79768 1.97914 4.80069 1.97914C4.8037 1.97914 4.80671 1.97914 4.80972 1.97914C4.81272 1.97914 4.81573 1.97914 4.81874 1.97914C4.82174 1.97914 4.82474 1.97914 4.82774 1.97914C4.83075 1.97914 4.83375 1.97914 4.83674 1.97914C4.83974 1.97914 4.84274 1.97914 4.84573 1.97914C4.84873 1.97914 4.85172 1.97914 4.85471 1.97914C4.85771 1.97914 4.8607 1.97914 4.86368 1.97914C4.86667 1.97914 4.86966 1.97914 4.87265 1.97914C4.87563 1.97914 4.87862 1.97914 4.8816 1.97914C4.88458 1.97914 4.88756 1.97914 4.89054 1.97914C4.89352 1.97914 4.8965 1.97914 4.89947 1.97914C4.90245 1.97914 4.90542 1.97914 4.9084 1.97914C4.91137 1.97914 4.91434 1.97914 4.91731 1.97914C4.92028 1.97914 4.92325 1.97914 4.92622 1.97914C4.92918 1.97914 4.93215 1.97914 4.93511 1.97914C4.93808 1.97914 4.94104 1.97914 4.944 1.97914C4.94696 1.97914 4.94992 1.97914 4.95288 1.97914C4.95584 1.97914 4.95879 1.97914 4.96175 1.97914C4.9647 1.97914 4.96766 1.97914 4.97061 1.97914C4.97356 1.97914 4.97651 1.97914 4.97946 1.97914C4.98241 1.97914 4.98536 1.97914 4.98831 1.97914C4.99125 1.97914 4.9942 1.97914 4.99714 1.97914C5.00008 1.97914 5.00303 1.97914 5.00597 1.97914C5.00891 1.97914 5.01185 1.97914 5.01479 1.97914C5.01772 1.97914 5.02066 1.97914 5.0236 1.97914C5.02653 1.97914 5.02947 1.97914 5.0324 1.97914C5.03533 1.97914 5.03826 1.97914 5.04119 1.97914C5.04412 1.97914 5.04705 1.97914 5.04998 1.97914C5.05291 1.97914 5.05583 1.97914 5.05876 1.97914C5.06168 1.97914 5.0646 1.97914 5.06753 1.97914C5.07045 1.97914 5.07337 1.97914 5.07629 1.97914C5.07921 1.97914 5.08212 1.97914 5.08504 1.97914C5.08796 1.97914 5.09087 1.97914 5.09379 1.97914C5.0967 1.97914 5.09961 1.97914 5.10253 1.97914C5.10544 1.97914 5.10835 1.97914 5.11126 1.97914C5.11417 1.97914 5.11707 1.97914 5.11998 1.97914C5.12289 1.97914 5.12579 1.97914 5.1287 1.97914C5.1316 1.97914 5.1345 1.97914 5.13741 1.97914C5.14031 1.97914 5.14321 1.97914 5.14611 1.97914C5.14901 1.97914 5.1519 1.97914 5.1548 1.97914C5.1577 1.97914 5.16059 1.97914 5.16349 1.97914C5.16638 1.97914 5.16928 1.97914 5.17217 1.97914C5.17506 1.97914 5.17795 1.97914 5.18084 1.97914C5.18373 1.97914 5.18662 1.97914 5.18951 1.97914C5.19239 1.97914 5.19528 1.97914 5.19817 1.97914C5.20105 1.97914 5.20394 1.97914 5.20682 1.97914C5.2097 1.97914 5.21258 1.97914 5.21546 1.97914C5.21835 1.97914 5.22122 1.97914 5.2241 1.97914C5.22698 1.97914 5.22986 1.97914 5.23274 1.97914C5.23561 1.97914 5.23849 1.97914 5.24136 1.97914C5.24424 1.97914 5.24711 1.97914 5.24998 1.97914C5.25285 1.97914 5.25572 1.97914 5.25859 1.97914C5.26146 1.97914 5.26433 1.97914 5.2672 1.97914C5.27007 1.97914 5.27294 1.97914 5.2758 1.97914C5.27867 1.97914 5.28153 1.97914 5.2844 1.97914C5.28726 1.97914 5.29012 1.97914 5.29298 1.97914C5.29585 1.97914 5.29871 1.97914 5.30157 1.97914C5.30443 1.97914 5.30728 1.97914 5.31014 1.97914C5.313 1.97914 5.31586 1.97914 5.31871 1.97914C5.32157 1.97914 5.32442 1.97914 5.32728 1.97914C5.33013 1.97914 5.33298 1.97914 5.33584 1.97914C5.33869 1.97914 5.34154 1.97914 5.34439 1.97914C5.34724 1.97914 5.35009 1.97914 5.35294 1.97914C5.35579 1.97914 5.35863 1.97914 5.36148 1.97914C5.36433 1.97914 5.36717 1.97914 5.37002 1.97914C5.37286 1.97914 5.3757 1.97914 5.37855 1.97914C5.38139 1.97914 5.38423 1.97914 5.38707 1.97914C5.38991 1.97914 5.39275 1.97914 5.39559 1.97914C5.39843 1.97914 5.40127 1.97914 5.40411 1.97914C5.40695 1.97914 5.40978 1.97914 5.41262 1.97914C5.41546 1.97914 5.41829 1.97914 5.42113 1.97914C5.42396 1.97914 5.42679 1.97914 5.42963 1.97914C5.43246 1.97914 5.43529 1.97914 5.43812 1.97914C5.44095 1.97914 5.44378 1.97914 5.44661 1.97914C5.44944 1.97914 5.45227 1.97914 5.4551 1.97914C5.45793 1.97914 5.46075 1.97914 5.46358 1.97914C5.46641 1.97914 5.46923 1.97914 5.47206 1.97914C5.47488 1.97914 5.47771 1.97914 5.48053 1.97914C5.48335 1.97914 5.48618 1.97914 5.489 1.97914C5.49182 1.97914 5.49464 1.97914 5.49746 1.97914C5.50028 1.97914 5.5031 1.97914 5.50592 1.97914C5.50874 1.97914 5.51156 1.97914 5.51438 1.97914C5.51719 1.97914 5.52001 1.97914 5.52283 1.97914C5.52564 1.97914 5.52846 1.97914 5.53127 1.97914C5.53409 1.97914 5.5369 1.97914 5.53972 1.97914C5.54253 1.97914 5.54534 1.97914 5.54816 1.97914C5.55097 1.97914 5.55378 1.97914 5.55659 1.97914C5.5594 1.97914 5.56221 1.97914 5.56502 1.97914C5.56783 1.97914 5.57064 1.97914 5.57345 1.97914C5.57626 1.97914 5.57907 1.97914 5.58187 1.97914C5.58468 1.97914 5.58749 1.97914 5.59029 1.97914C5.5931 1.97914 5.59591 1.97914 5.59871 1.97914C5.60152 1.97914 5.60432 1.97914 5.60713 1.97914C5.60993 1.97914 5.61273 1.97914 5.61554 1.97914C5.61834 1.97914 5.62114 1.97914 5.62394 1.97914C5.62674 1.97914 5.62955 1.97914 5.63235 1.97914C5.63515 1.97914 5.63795 1.97914 5.64075 1.97914C5.64355 1.97914 5.64635 1.97914 5.64914 1.97914C5.65194 1.97914 5.65474 1.97914 5.65754 1.97914C5.66034 1.97914 5.66313 1.97914 5.66593 1.97914C5.66873 1.97914 5.67152 1.97914 5.67432 1.97914C5.67711 1.97914 5.67991 1.97914 5.6827 1.97914C5.6855 1.97914 5.68829 1.97914 5.69109 1.97914C5.69388 1.97914 5.69667 1.97914 5.69947 1.97914C5.70226 1.97914 5.70505 1.97914 5.70784 1.97914C5.71064 1.97914 5.71343 1.97914 5.71622 1.97914C5.71901 1.97914 5.7218 1.97914 5.72459 1.97914C5.72738 1.97914 5.73017 1.97914 5.73296 1.97914C5.73575 1.97914 5.73854 1.97914 5.74133 1.97914C5.74412 1.97914 5.74691 1.97914 5.7497 1.97914C5.75249 1.97914 5.75527 1.97914 5.75806 1.97914C5.76085 1.97914 5.76364 1.97914 5.76642 1.97914C5.76921 1.97914 5.772 1.97914 5.77478 1.97914C5.77757 1.97914 5.78035 1.97914 5.78314 1.97914C5.78593 1.97914 5.78871 1.97914 5.7915 1.97914C5.79428 1.97914 5.79707 1.97914 5.79985 1.97914C5.80264 1.97914 5.80542 1.97914 5.8082 1.97914C5.81099 1.97914 5.81377 1.97914 5.81655 1.97914C5.81934 1.97914 5.82212 1.97914 5.8249 1.97914C5.82769 1.97914 5.83047 1.97914 5.83325 1.97914C5.83603 1.97914 5.83882 1.97914 5.8416 1.97914C5.84438 1.97914 5.84716 1.97914 5.84994 1.97914C5.85272 1.97914 5.8555 1.97914 5.85829 1.97914C5.86107 1.97914 5.86385 1.97914 5.86663 1.97914C5.86941 1.97914 5.87219 1.97914 5.87497 1.97914C5.87775 1.97914 5.88053 1.97914 5.88331 1.97914C5.88609 1.97914 5.88887 1.97914 5.89165 1.97914C5.89443 1.97914 5.89721 1.97914 5.89999 1.97914C5.90277 1.97914 5.90555 1.97914 5.90832 1.97914C5.9111 1.97914 5.91388 1.97914 5.91666 1.97914C5.91944 1.97914 5.92222 1.97914 5.925 1.97914C5.92778 1.97914 5.93055 1.97914 5.93333 1.97914C5.93611 1.97914 5.93889 1.97914 5.94167 1.97914C5.94445 1.97914 5.94722 1.97914 5.95 1.97914C5.95278 1.97914 5.95556 1.97914 5.95833 1.97914C5.96111 1.97914 5.96389 1.97914 5.96667 1.97914C5.96945 1.97914 5.97222 1.97914 5.975 1.97914C5.97778 1.97914 5.98056 1.97914 5.98333 1.97914C5.98611 1.97914 5.98889 1.97914 5.99167 1.97914C5.99444 1.97914 5.99722 1.97914 6 1.97914C6.00278 1.97914 6.00556 1.97914 6.00833 1.97914C6.01111 1.97914 6.01389 1.97914 6.01667 1.97914C6.01944 1.97914 6.02222 1.97914 6.025 1.97914C6.02778 1.97914 6.03055 1.97914 6.03333 1.97914C6.03611 1.97914 6.03889 1.97914 6.04166 1.97914C6.04444 1.97914 6.04722 1.97914 6.05 1.97914C6.05278 1.97914 6.05555 1.97914 6.05833 1.97914C6.06111 1.97914 6.06389 1.97914 6.06667 1.97914C6.06945 1.97914 6.07222 1.97914 6.075 1.97914C6.07778 1.97914 6.08056 1.97914 6.08334 1.97914C6.08612 1.97914 6.0889 1.97914 6.09168 1.97914C6.09445 1.97914 6.09723 1.97914 6.10001 1.97914C6.10279 1.97914 6.10557 1.97914 6.10835 1.97914C6.11113 1.97914 6.11391 1.97914 6.11669 1.97914C6.11947 1.97914 6.12225 1.97914 6.12503 1.97914C6.12781 1.97914 6.13059 1.97914 6.13337 1.97914C6.13615 1.97914 6.13893 1.97914 6.14171 1.97914C6.1445 1.97914 6.14728 1.97914 6.15006 1.97914C6.15284 1.97914 6.15562 1.97914 6.1584 1.97914C6.16118 1.97914 6.16397 1.97914 6.16675 1.97914C6.16953 1.97914 6.17231 1.97914 6.1751 1.97914C6.17788 1.97914 6.18066 1.97914 6.18345 1.97914C6.18623 1.97914 6.18901 1.97914 6.1918 1.97914C6.19458 1.97914 6.19736 1.97914 6.20015 1.97914C6.20293 1.97914 6.20572 1.97914 6.2085 1.97914C6.21129 1.97914 6.21407 1.97914 6.21686 1.97914C6.21964 1.97914 6.22243 1.97914 6.22522 1.97914C6.228 1.97914 6.23079 1.97914 6.23358 1.97914C6.23636 1.97914 6.23915 1.97914 6.24194 1.97914C6.24473 1.97914 6.24751 1.97914 6.2503 1.97914C6.25309 1.97914 6.25588 1.97914 6.25867 1.97914C6.26146 1.97914 6.26425 1.97914 6.26704 1.97914C6.26983 1.97914 6.27262 1.97914 6.27541 1.97914C6.2782 1.97914 6.28099 1.97914 6.28378 1.97914C6.28657 1.97914 6.28936 1.97914 6.29215 1.97914C6.29495 1.97914 6.29774 1.97914 6.30053 1.97914C6.30333 1.97914 6.30612 1.97914 6.30891 1.97914C6.31171 1.97914 6.3145 1.97914 6.3173 1.97914C6.32009 1.97914 6.32289 1.97914 6.32568 1.97914C6.32848 1.97914 6.33127 1.97914 6.33407 1.97914C6.33687 1.97914 6.33966 1.97914 6.34246 1.97914C6.34526 1.97914 6.34806 1.97914 6.35086 1.97914C6.35365 1.97914 6.35645 1.97914 6.35925 1.97914C6.36205 1.97914 6.36485 1.97914 6.36765 1.97914C6.37045 1.97914 6.37326 1.97914 6.37606 1.97914C6.37886 1.97914 6.38166 1.97914 6.38446 1.97914C6.38727 1.97914 6.39007 1.97914 6.39287 1.97914C6.39568 1.97914 6.39848 1.97914 6.40129 1.97914C6.40409 1.97914 6.4069 1.97914 6.4097 1.97914C6.41251 1.97914 6.41532 1.97914 6.41813 1.97914C6.42093 1.97914 6.42374 1.97914 6.42655 1.97914C6.42936 1.97914 6.43217 1.97914 6.43498 1.97914C6.43779 1.97914 6.4406 1.97914 6.44341 1.97914C6.44622 1.97914 6.44903 1.97914 6.45184 1.97914C6.45466 1.97914 6.45747 1.97914 6.46028 1.97914C6.4631 1.97914 6.46591 1.97914 6.46872 1.97914C6.47154 1.97914 6.47436 1.97914 6.47717 1.97914C6.47999 1.97914 6.48281 1.97914 6.48562 1.97914C6.48844 1.97914 6.49126 1.97914 6.49408 1.97914C6.4969 1.97914 6.49972 1.97914 6.50254 1.97914C6.50536 1.97914 6.50818 1.97914 6.511 1.97914C6.51382 1.97914 6.51665 1.97914 6.51947 1.97914C6.52229 1.97914 6.52512 1.97914 6.52794 1.97914C6.53077 1.97914 6.53359 1.97914 6.53642 1.97914C6.53925 1.97914 6.54207 1.97914 6.5449 1.97914C6.54773 1.97914 6.55056 1.97914 6.55339 1.97914C6.55622 1.97914 6.55905 1.97914 6.56188 1.97914C6.56471 1.97914 6.56754 1.97914 6.57037 1.97914C6.57321 1.97914 6.57604 1.97914 6.57887 1.97914C6.58171 1.97914 6.58454 1.97914 6.58738 1.97914C6.59022 1.97914 6.59305 1.97914 6.59589 1.97914C6.59873 1.97914 6.60157 1.97914 6.60441 1.97914C6.60724 1.97914 6.61009 1.97914 6.61293 1.97914C6.61577 1.97914 6.61861 1.97914 6.62145 1.97914C6.6243 1.97914 6.62714 1.97914 6.62998 1.97914C6.63283 1.97914 6.63567 1.97914 6.63852 1.97914C6.64137 1.97914 6.64421 1.97914 6.64706 1.97914C6.64991 1.97914 6.65276 1.97914 6.65561 1.97914C6.65846 1.97914 6.66131 1.97914 6.66416 1.97914C6.66702 1.97914 6.66987 1.97914 6.67272 1.97914C6.67558 1.97914 6.67843 1.97914 6.68129 1.97914C6.68414 1.97914 6.687 1.97914 6.68986 1.97914C6.69272 1.97914 6.69557 1.97914 6.69843 1.97914C6.70129 1.97914 6.70415 1.97914 6.70702 1.97914C6.70988 1.97914 6.71274 1.97914 6.7156 1.97914C6.71847 1.97914 6.72133 1.97914 6.7242 1.97914C6.72706 1.97914 6.72993 1.97914 6.7328 1.97914C6.73567 1.97914 6.73854 1.97914 6.74141 1.97914C6.74428 1.97914 6.74715 1.97914 6.75002 1.97914C6.75289 1.97914 6.75576 1.97914 6.75864 1.97914C6.76151 1.97914 6.76439 1.97914 6.76726 1.97914C6.77014 1.97914 6.77302 1.97914 6.7759 1.97914C6.77878 1.97914 6.78165 1.97914 6.78454 1.97914C6.78742 1.97914 6.7903 1.97914 6.79318 1.97914C6.79606 1.97914 6.79895 1.97914 6.80183 1.97914C6.80472 1.97914 6.8076 1.97914 6.81049 1.97914C6.81338 1.97914 6.81627 1.97914 6.81916 1.97914C6.82205 1.97914 6.82494 1.97914 6.82783 1.97914C6.83072 1.97914 6.83362 1.97914 6.83651 1.97914C6.83941 1.97914 6.8423 1.97914 6.8452 1.97914C6.8481 1.97914 6.85099 1.97914 6.85389 1.97914C6.85679 1.97914 6.85969 1.97914 6.86259 1.97914C6.8655 1.97914 6.8684 1.97914 6.8713 1.97914C6.87421 1.97914 6.87711 1.97914 6.88002 1.97914C6.88293 1.97914 6.88583 1.97914 6.88874 1.97914C6.89165 1.97914 6.89456 1.97914 6.89747 1.97914C6.90038 1.97914 6.9033 1.97914 6.90621 1.97914C6.90913 1.97914 6.91204 1.97914 6.91496 1.97914C6.91788 1.97914 6.92079 1.97914 6.92371 1.97914C6.92663 1.97914 6.92955 1.97914 6.93247 1.97914C6.9354 1.97914 6.93832 1.97914 6.94124 1.97914C6.94417 1.97914 6.94709 1.97914 6.95002 1.97914C6.95295 1.97914 6.95588 1.97914 6.95881 1.97914C6.96174 1.97914 6.96467 1.97914 6.9676 1.97914C6.97053 1.97914 6.97347 1.97914 6.9764 1.97914C6.97934 1.97914 6.98228 1.97914 6.98521 1.97914C6.98815 1.97914 6.99109 1.97914 6.99403 1.97914C6.99697 1.97914 6.99991 1.97914 7.00286 1.97914C7.0058 1.97914 7.00875 1.97914 7.01169 1.97914C7.01464 1.97914 7.01759 1.97914 7.02054 1.97914C7.02349 1.97914 7.02644 1.97914 7.02939 1.97914C7.03234 1.97914 7.0353 1.97914 7.03825 1.97914C7.04121 1.97914 7.04416 1.97914 7.04712 1.97914C7.05008 1.97914 7.05304 1.97914 7.056 1.97914C7.05896 1.97914 7.06192 1.97914 7.06489 1.97914C7.06785 1.97914 7.07082 1.97914 7.07378 1.97914C7.07675 1.97914 7.07972 1.97914 7.08269 1.97914C7.08566 1.97914 7.08863 1.97914 7.0916 1.97914C7.09458 1.97914 7.09755 1.97914 7.10053 1.97914C7.1035 1.97914 7.10648 1.97914 7.10946 1.97914C7.11244 1.97914 7.11542 1.97914 7.1184 1.97914C7.12138 1.97914 7.12437 1.97914 7.12735 1.97914C7.13034 1.97914 7.13333 1.97914 7.13631 1.97914C7.1393 1.97914 7.14229 1.97914 7.14529 1.97914C7.14828 1.97914 7.15127 1.97914 7.15427 1.97914C7.15726 1.97914 7.16026 1.97914 7.16326 1.97914C7.16625 1.97914 7.16925 1.97914 7.17226 1.97914C7.17526 1.97914 7.17826 1.97914 7.18126 1.97914C7.18427 1.97914 7.18728 1.97914 7.19028 1.97914C7.19329 1.97914 7.1963 1.97914 7.19931 1.97914C7.20232 1.97914 7.20534 1.97914 7.20835 1.97914C7.21137 1.97914 7.21438 1.97914 7.2174 1.97914C7.22042 1.97914 7.22344 1.97914 7.22646 1.97914C7.22948 1.97914 7.23251 1.97914 7.23553 1.97914C7.23856 1.97914 7.24158 1.97914 7.24461 1.97914C7.24764 1.97914 7.25067 1.97914 7.2537 1.97914C7.25673 1.97914 7.25977 1.97914 7.2628 1.97914C7.26584 1.97914 7.26887 1.97914 7.27191 1.97914C7.27495 1.97914 7.27799 1.97914 7.28104 1.97914C7.28408 1.97914 7.28712 1.97914 7.29017 1.97914C7.29321 1.97914 7.29626 1.97914 7.29931 1.97914C7.30236 1.97914 7.30541 1.97914 7.30847 1.97914C7.31152 1.97914 7.31457 1.97914 7.31763 1.97914C7.32069 1.97914 7.32375 1.97914 7.32681 1.97914C7.32987 1.97914 7.33293 1.97914 7.33599 1.97914C7.33906 1.97914 7.34212 1.97914 7.34519 1.97914C7.34826 1.97914 7.35133 1.97914 7.3544 1.97914C7.35747 1.97914 7.36055 1.97914 7.36362 1.97914C7.3667 1.97914 7.36977 1.97914 7.37285 1.97914C7.37593 1.97914 7.37901 1.97914 7.3821 1.97914C7.38518 1.97914 7.38827 1.97914 7.39135 1.97914C7.39444 1.97914 7.39753 1.97914 7.40062 1.97914C7.40371 1.97914 7.4068 1.97914 7.4099 1.97914C7.41299 1.97914 7.41609 1.97914 7.41919 1.97914C7.42228 1.97914 7.42538 1.97914 7.42849 1.97914C7.43159 1.97914 7.43469 1.97914 7.4378 1.97914C7.44091 1.97914 7.44401 1.97914 7.44712 1.97914C7.45023 1.97914 7.45335 1.97914 7.45646 1.97914C7.45958 1.97914 7.46269 1.97914 7.46581 1.97914C7.46893 1.97914 7.47205 1.97914 7.47517 1.97914C7.47829 1.97914 7.48142 1.97914 7.48454 1.97914C7.48767 1.97914 7.4908 1.97914 7.49393 1.97914C7.49706 1.97914 7.50019 1.97914 7.50333 1.97914C7.50646 1.97914 7.5096 1.97914 7.51274 1.97914C7.51588 1.97914 7.51902 1.97914 7.52216 1.97914C7.5253 1.97914 7.52845 1.97914 7.5316 1.97914C7.53474 1.97914 7.53789 1.97914 7.54104 1.97914C7.54419 1.97914 7.54735 1.97914 7.5505 1.97914C7.55366 1.97914 7.55682 1.97914 7.55998 1.97914C7.56314 1.97914 7.5663 1.97914 7.56946 1.97914C7.57263 1.97914 7.57579 1.97914 7.57896 1.97914C7.58213 1.97914 7.5853 1.97914 7.58847 1.97914C7.59165 1.97914 7.59482 1.97914 7.598 1.97914C7.60118 1.97914 7.60435 1.97914 7.60754 1.97914C7.61072 1.97914 7.6139 1.97914 7.61709 1.97914C7.62027 1.97914 7.62346 1.97914 7.62665 1.97914C7.62984 1.97914 7.63303 1.97914 7.63623 1.97914C7.63942 1.97914 7.64262 1.97914 7.64582 1.97914C7.64902 1.97914 7.65222 1.97914 7.65542 1.97914C7.65863 1.97914 7.66183 1.97914 7.66504 1.97914C7.66825 1.97914 7.67146 1.97914 7.67467 1.97914C7.67789 1.97914 7.6811 1.97914 7.68432 1.97914C7.68754 1.97914 7.69076 1.97914 7.69398 1.97914C7.6972 1.97914 7.70042 1.97914 7.70365 1.97914C7.70688 1.97914 7.71011 1.97914 7.71334 1.97914C7.71657 1.97914 7.7198 1.97914 7.72304 1.97914C7.72627 1.97914 7.72951 1.97914 7.73275 1.97914C7.73599 1.97914 7.73924 1.97914 7.74248 1.97914C7.74573 1.97914 7.74898 1.97914 7.75223 1.97914C7.75548 1.97914 7.75873 1.97914 7.76198 1.97914C7.76524 1.97914 7.76849 1.97914 7.77175 1.97914C7.77501 1.97914 7.77828 1.97914 7.78154 1.97914C7.7848 1.97914 7.78807 1.97914 7.79134 1.97914C7.79461 1.97914 7.79788 1.97914 7.80116 1.97914C7.80443 1.97914 7.80771 1.97914 7.81099 1.97914C7.81426 1.97914 7.81755 1.97914 7.82083 1.97914C7.82411 1.97914 7.8274 1.97914 7.83069 1.97914C7.83398 1.97914 7.83727 1.97914 7.84056 1.97914C7.84386 1.97914 7.84715 1.97914 7.85045 1.97914C7.85375 1.97914 7.85705 1.97914 7.86035 1.97914C7.86366 1.97914 7.86696 1.97914 7.87027 1.97914C7.87358 1.97914 7.87689 1.97914 7.88021 1.97914C7.88352 1.97914 7.88684 1.97914 7.89016 1.97914C7.89347 1.97914 7.8968 1.97914 7.90012 1.97914C7.90344 1.97914 7.90677 1.97914 7.9101 1.97914C7.91343 1.97914 7.91676 1.97914 7.92009 1.97914C7.92343 1.97914 7.92677 1.97914 7.9301 1.97914C7.93344 1.97914 7.93679 1.97914 7.94013 1.97914C7.94348 1.97914 7.94682 1.97914 7.95017 1.97914C7.95352 1.97914 7.95687 1.97914 7.96023 1.97914C7.96358 1.97914 7.96694 1.97914 7.9703 1.97914C7.97366 1.97914 7.97703 1.97914 7.98039 1.97914C7.98376 1.97914 7.98712 1.97914 7.9905 1.97914C7.99387 1.97914 7.99724 1.97914 8.00062 1.97914C8.00399 1.97914 8.00737 1.97914 8.01075 1.97914C8.01413 1.97914 8.01752 1.97914 8.02091 1.97914C8.02429 1.97914 8.02768 1.97914 8.03107 1.97914C8.03447 1.97914 8.03786 1.97914 8.04126 1.97914C8.04466 1.97914 8.04806 1.97914 8.05146 1.97914C8.05486 1.97914 8.05827 1.97914 8.06168 1.97914C8.06509 1.97914 8.0685 1.97914 8.07191 1.97914C8.07533 1.97914 8.07874 1.97914 8.08216 1.97914C8.08558 1.97914 8.08901 1.97914 8.09243 1.97914C8.09586 1.97914 8.09929 1.97914 8.10272 1.97914C8.10615 1.97914 8.10958 1.97914 8.11302 1.97914C8.11645 1.97914 8.11989 1.97914 8.12333 1.97914C8.12678 1.97914 8.13022 1.97914 8.13367 1.97914C8.13712 1.97914 8.14057 1.97914 8.14402 1.97914C8.14747 1.97914 8.15093 1.97914 8.15439 1.97914C8.15785 1.97914 8.16131 1.97914 8.16478 1.97914C8.16824 1.97914 8.17171 1.97914 8.17518 1.97914C8.17865 1.97914 8.18212 1.97914 8.1856 1.97914C8.18907 1.97914 8.19255 1.97914 8.19604 1.97914C8.19952 1.97914 8.203 1.97914 8.20649 1.97914C8.20998 1.97914 8.21347 1.97914 8.21696 1.97914C8.22046 1.97914 8.22395 1.97914 8.22745 1.97914C8.23095 1.97914 8.23446 1.97914 8.23796 1.97914C8.24147 1.97914 8.24497 1.97914 8.24849 1.97914C8.252 1.97914 8.25551 1.97914 8.25903 1.97914C8.26255 1.97914 8.26607 1.97914 8.26959 1.97914C8.27311 1.97914 8.27664 1.97914 8.28017 1.97914C8.2837 1.97914 8.28723 1.97914 8.29077 1.97914C8.2943 1.97914 8.29784 1.97914 8.30138 1.97914C8.30492 1.97914 8.30847 1.97914 8.31201 1.97914C8.31556 1.97914 8.31911 1.97914 8.32266 1.97914C8.32622 1.97914 8.32977 1.97914 8.33333 1.97914V1.10414C8.32977 1.10414 8.32622 1.10414 8.32266 1.10414C8.31911 1.10414 8.31556 1.10414 8.31201 1.10414C8.30847 1.10414 8.30492 1.10414 8.30138 1.10414C8.29784 1.10414 8.2943 1.10414 8.29077 1.10414C8.28723 1.10414 8.2837 1.10414 8.28017 1.10414C8.27664 1.10414 8.27311 1.10414 8.26959 1.10414C8.26607 1.10414 8.26255 1.10414 8.25903 1.10414C8.25551 1.10414 8.252 1.10414 8.24849 1.10414C8.24497 1.10414 8.24147 1.10414 8.23796 1.10414C8.23446 1.10414 8.23095 1.10414 8.22745 1.10414C8.22395 1.10414 8.22046 1.10414 8.21696 1.10414C8.21347 1.10414 8.20998 1.10414 8.20649 1.10414C8.203 1.10414 8.19952 1.10414 8.19604 1.10414C8.19255 1.10414 8.18907 1.10414 8.1856 1.10414C8.18212 1.10414 8.17865 1.10414 8.17518 1.10414C8.17171 1.10414 8.16824 1.10414 8.16478 1.10414C8.16131 1.10414 8.15785 1.10414 8.15439 1.10414C8.15093 1.10414 8.14747 1.10414 8.14402 1.10414C8.14057 1.10414 8.13712 1.10414 8.13367 1.10414C8.13022 1.10414 8.12678 1.10414 8.12333 1.10414C8.11989 1.10414 8.11645 1.10414 8.11302 1.10414C8.10958 1.10414 8.10615 1.10414 8.10272 1.10414C8.09929 1.10414 8.09586 1.10414 8.09243 1.10414C8.08901 1.10414 8.08558 1.10414 8.08216 1.10414C8.07874 1.10414 8.07533 1.10414 8.07191 1.10414C8.0685 1.10414 8.06509 1.10414 8.06168 1.10414C8.05827 1.10414 8.05486 1.10414 8.05146 1.10414C8.04806 1.10414 8.04466 1.10414 8.04126 1.10414C8.03786 1.10414 8.03447 1.10414 8.03107 1.10414C8.02768 1.10414 8.02429 1.10414 8.02091 1.10414C8.01752 1.10414 8.01413 1.10414 8.01075 1.10414C8.00737 1.10414 8.00399 1.10414 8.00062 1.10414C7.99724 1.10414 7.99387 1.10414 7.9905 1.10414C7.98712 1.10414 7.98376 1.10414 7.98039 1.10414C7.97703 1.10414 7.97366 1.10414 7.9703 1.10414C7.96694 1.10414 7.96358 1.10414 7.96023 1.10414C7.95687 1.10414 7.95352 1.10414 7.95017 1.10414C7.94682 1.10414 7.94348 1.10414 7.94013 1.10414C7.93679 1.10414 7.93344 1.10414 7.9301 1.10414C7.92677 1.10414 7.92343 1.10414 7.92009 1.10414C7.91676 1.10414 7.91343 1.10414 7.9101 1.10414C7.90677 1.10414 7.90344 1.10414 7.90012 1.10414C7.8968 1.10414 7.89347 1.10414 7.89016 1.10414C7.88684 1.10414 7.88352 1.10414 7.88021 1.10414C7.87689 1.10414 7.87358 1.10414 7.87027 1.10414C7.86696 1.10414 7.86366 1.10414 7.86035 1.10414C7.85705 1.10414 7.85375 1.10414 7.85045 1.10414C7.84715 1.10414 7.84386 1.10414 7.84056 1.10414C7.83727 1.10414 7.83398 1.10414 7.83069 1.10414C7.8274 1.10414 7.82411 1.10414 7.82083 1.10414C7.81755 1.10414 7.81426 1.10414 7.81099 1.10414C7.80771 1.10414 7.80443 1.10414 7.80116 1.10414C7.79788 1.10414 7.79461 1.10414 7.79134 1.10414C7.78807 1.10414 7.7848 1.10414 7.78154 1.10414C7.77828 1.10414 7.77501 1.10414 7.77175 1.10414C7.76849 1.10414 7.76524 1.10414 7.76198 1.10414C7.75873 1.10414 7.75548 1.10414 7.75223 1.10414C7.74898 1.10414 7.74573 1.10414 7.74248 1.10414C7.73924 1.10414 7.73599 1.10414 7.73275 1.10414C7.72951 1.10414 7.72627 1.10414 7.72304 1.10414C7.7198 1.10414 7.71657 1.10414 7.71334 1.10414C7.71011 1.10414 7.70688 1.10414 7.70365 1.10414C7.70042 1.10414 7.6972 1.10414 7.69398 1.10414C7.69076 1.10414 7.68754 1.10414 7.68432 1.10414C7.6811 1.10414 7.67789 1.10414 7.67467 1.10414C7.67146 1.10414 7.66825 1.10414 7.66504 1.10414C7.66183 1.10414 7.65863 1.10414 7.65542 1.10414C7.65222 1.10414 7.64902 1.10414 7.64582 1.10414C7.64262 1.10414 7.63942 1.10414 7.63623 1.10414C7.63303 1.10414 7.62984 1.10414 7.62665 1.10414C7.62346 1.10414 7.62027 1.10414 7.61709 1.10414C7.6139 1.10414 7.61072 1.10414 7.60754 1.10414C7.60435 1.10414 7.60118 1.10414 7.598 1.10414C7.59482 1.10414 7.59165 1.10414 7.58847 1.10414C7.5853 1.10414 7.58213 1.10414 7.57896 1.10414C7.57579 1.10414 7.57263 1.10414 7.56946 1.10414C7.5663 1.10414 7.56314 1.10414 7.55998 1.10414C7.55682 1.10414 7.55366 1.10414 7.5505 1.10414C7.54735 1.10414 7.54419 1.10414 7.54104 1.10414C7.53789 1.10414 7.53474 1.10414 7.5316 1.10414C7.52845 1.10414 7.5253 1.10414 7.52216 1.10414C7.51902 1.10414 7.51588 1.10414 7.51274 1.10414C7.5096 1.10414 7.50646 1.10414 7.50333 1.10414C7.50019 1.10414 7.49706 1.10414 7.49393 1.10414C7.4908 1.10414 7.48767 1.10414 7.48454 1.10414C7.48142 1.10414 7.47829 1.10414 7.47517 1.10414C7.47205 1.10414 7.46893 1.10414 7.46581 1.10414C7.46269 1.10414 7.45958 1.10414 7.45646 1.10414C7.45335 1.10414 7.45023 1.10414 7.44712 1.10414C7.44401 1.10414 7.44091 1.10414 7.4378 1.10414C7.43469 1.10414 7.43159 1.10414 7.42849 1.10414C7.42538 1.10414 7.42228 1.10414 7.41919 1.10414C7.41609 1.10414 7.41299 1.10414 7.4099 1.10414C7.4068 1.10414 7.40371 1.10414 7.40062 1.10414C7.39753 1.10414 7.39444 1.10414 7.39135 1.10414C7.38827 1.10414 7.38518 1.10414 7.3821 1.10414C7.37901 1.10414 7.37593 1.10414 7.37285 1.10414C7.36977 1.10414 7.3667 1.10414 7.36362 1.10414C7.36055 1.10414 7.35747 1.10414 7.3544 1.10414C7.35133 1.10414 7.34826 1.10414 7.34519 1.10414C7.34212 1.10414 7.33906 1.10414 7.33599 1.10414C7.33293 1.10414 7.32987 1.10414 7.32681 1.10414C7.32375 1.10414 7.32069 1.10414 7.31763 1.10414C7.31457 1.10414 7.31152 1.10414 7.30847 1.10414C7.30541 1.10414 7.30236 1.10414 7.29931 1.10414C7.29626 1.10414 7.29321 1.10414 7.29017 1.10414C7.28712 1.10414 7.28408 1.10414 7.28104 1.10414C7.27799 1.10414 7.27495 1.10414 7.27191 1.10414C7.26887 1.10414 7.26584 1.10414 7.2628 1.10414C7.25977 1.10414 7.25673 1.10414 7.2537 1.10414C7.25067 1.10414 7.24764 1.10414 7.24461 1.10414C7.24158 1.10414 7.23856 1.10414 7.23553 1.10414C7.23251 1.10414 7.22948 1.10414 7.22646 1.10414C7.22344 1.10414 7.22042 1.10414 7.2174 1.10414C7.21438 1.10414 7.21137 1.10414 7.20835 1.10414C7.20534 1.10414 7.20232 1.10414 7.19931 1.10414C7.1963 1.10414 7.19329 1.10414 7.19028 1.10414C7.18728 1.10414 7.18427 1.10414 7.18126 1.10414C7.17826 1.10414 7.17526 1.10414 7.17226 1.10414C7.16925 1.10414 7.16625 1.10414 7.16326 1.10414C7.16026 1.10414 7.15726 1.10414 7.15427 1.10414C7.15127 1.10414 7.14828 1.10414 7.14529 1.10414C7.14229 1.10414 7.1393 1.10414 7.13631 1.10414C7.13333 1.10414 7.13034 1.10414 7.12735 1.10414C7.12437 1.10414 7.12138 1.10414 7.1184 1.10414C7.11542 1.10414 7.11244 1.10414 7.10946 1.10414C7.10648 1.10414 7.1035 1.10414 7.10053 1.10414C7.09755 1.10414 7.09458 1.10414 7.0916 1.10414C7.08863 1.10414 7.08566 1.10414 7.08269 1.10414C7.07972 1.10414 7.07675 1.10414 7.07378 1.10414C7.07082 1.10414 7.06785 1.10414 7.06489 1.10414C7.06192 1.10414 7.05896 1.10414 7.056 1.10414C7.05304 1.10414 7.05008 1.10414 7.04712 1.10414C7.04416 1.10414 7.04121 1.10414 7.03825 1.10414C7.0353 1.10414 7.03234 1.10414 7.02939 1.10414C7.02644 1.10414 7.02349 1.10414 7.02054 1.10414C7.01759 1.10414 7.01464 1.10414 7.01169 1.10414C7.00875 1.10414 7.0058 1.10414 7.00286 1.10414C6.99991 1.10414 6.99697 1.10414 6.99403 1.10414C6.99109 1.10414 6.98815 1.10414 6.98521 1.10414C6.98228 1.10414 6.97934 1.10414 6.9764 1.10414C6.97347 1.10414 6.97053 1.10414 6.9676 1.10414C6.96467 1.10414 6.96174 1.10414 6.95881 1.10414C6.95588 1.10414 6.95295 1.10414 6.95002 1.10414C6.94709 1.10414 6.94417 1.10414 6.94124 1.10414C6.93832 1.10414 6.9354 1.10414 6.93247 1.10414C6.92955 1.10414 6.92663 1.10414 6.92371 1.10414C6.92079 1.10414 6.91788 1.10414 6.91496 1.10414C6.91204 1.10414 6.90913 1.10414 6.90621 1.10414C6.9033 1.10414 6.90038 1.10414 6.89747 1.10414C6.89456 1.10414 6.89165 1.10414 6.88874 1.10414C6.88583 1.10414 6.88293 1.10414 6.88002 1.10414C6.87711 1.10414 6.87421 1.10414 6.8713 1.10414C6.8684 1.10414 6.8655 1.10414 6.86259 1.10414C6.85969 1.10414 6.85679 1.10414 6.85389 1.10414C6.85099 1.10414 6.8481 1.10414 6.8452 1.10414C6.8423 1.10414 6.83941 1.10414 6.83651 1.10414C6.83362 1.10414 6.83072 1.10414 6.82783 1.10414C6.82494 1.10414 6.82205 1.10414 6.81916 1.10414C6.81627 1.10414 6.81338 1.10414 6.81049 1.10414C6.8076 1.10414 6.80472 1.10414 6.80183 1.10414C6.79895 1.10414 6.79606 1.10414 6.79318 1.10414C6.7903 1.10414 6.78742 1.10414 6.78454 1.10414C6.78165 1.10414 6.77878 1.10414 6.7759 1.10414C6.77302 1.10414 6.77014 1.10414 6.76726 1.10414C6.76439 1.10414 6.76151 1.10414 6.75864 1.10414C6.75576 1.10414 6.75289 1.10414 6.75002 1.10414C6.74715 1.10414 6.74428 1.10414 6.74141 1.10414C6.73854 1.10414 6.73567 1.10414 6.7328 1.10414C6.72993 1.10414 6.72706 1.10414 6.7242 1.10414C6.72133 1.10414 6.71847 1.10414 6.7156 1.10414C6.71274 1.10414 6.70988 1.10414 6.70702 1.10414C6.70415 1.10414 6.70129 1.10414 6.69843 1.10414C6.69557 1.10414 6.69272 1.10414 6.68986 1.10414C6.687 1.10414 6.68414 1.10414 6.68129 1.10414C6.67843 1.10414 6.67558 1.10414 6.67272 1.10414C6.66987 1.10414 6.66702 1.10414 6.66416 1.10414C6.66131 1.10414 6.65846 1.10414 6.65561 1.10414C6.65276 1.10414 6.64991 1.10414 6.64706 1.10414C6.64421 1.10414 6.64137 1.10414 6.63852 1.10414C6.63567 1.10414 6.63283 1.10414 6.62998 1.10414C6.62714 1.10414 6.6243 1.10414 6.62145 1.10414C6.61861 1.10414 6.61577 1.10414 6.61293 1.10414C6.61009 1.10414 6.60724 1.10414 6.60441 1.10414C6.60157 1.10414 6.59873 1.10414 6.59589 1.10414C6.59305 1.10414 6.59022 1.10414 6.58738 1.10414C6.58454 1.10414 6.58171 1.10414 6.57887 1.10414C6.57604 1.10414 6.57321 1.10414 6.57037 1.10414C6.56754 1.10414 6.56471 1.10414 6.56188 1.10414C6.55905 1.10414 6.55622 1.10414 6.55339 1.10414C6.55056 1.10414 6.54773 1.10414 6.5449 1.10414C6.54207 1.10414 6.53925 1.10414 6.53642 1.10414C6.53359 1.10414 6.53077 1.10414 6.52794 1.10414C6.52512 1.10414 6.52229 1.10414 6.51947 1.10414C6.51665 1.10414 6.51382 1.10414 6.511 1.10414C6.50818 1.10414 6.50536 1.10414 6.50254 1.10414C6.49972 1.10414 6.4969 1.10414 6.49408 1.10414C6.49126 1.10414 6.48844 1.10414 6.48562 1.10414C6.48281 1.10414 6.47999 1.10414 6.47717 1.10414C6.47436 1.10414 6.47154 1.10414 6.46872 1.10414C6.46591 1.10414 6.4631 1.10414 6.46028 1.10414C6.45747 1.10414 6.45466 1.10414 6.45184 1.10414C6.44903 1.10414 6.44622 1.10414 6.44341 1.10414C6.4406 1.10414 6.43779 1.10414 6.43498 1.10414C6.43217 1.10414 6.42936 1.10414 6.42655 1.10414C6.42374 1.10414 6.42093 1.10414 6.41813 1.10414C6.41532 1.10414 6.41251 1.10414 6.4097 1.10414C6.4069 1.10414 6.40409 1.10414 6.40129 1.10414C6.39848 1.10414 6.39568 1.10414 6.39287 1.10414C6.39007 1.10414 6.38727 1.10414 6.38446 1.10414C6.38166 1.10414 6.37886 1.10414 6.37606 1.10414C6.37326 1.10414 6.37045 1.10414 6.36765 1.10414C6.36485 1.10414 6.36205 1.10414 6.35925 1.10414C6.35645 1.10414 6.35365 1.10414 6.35086 1.10414C6.34806 1.10414 6.34526 1.10414 6.34246 1.10414C6.33966 1.10414 6.33687 1.10414 6.33407 1.10414C6.33127 1.10414 6.32848 1.10414 6.32568 1.10414C6.32289 1.10414 6.32009 1.10414 6.3173 1.10414C6.3145 1.10414 6.31171 1.10414 6.30891 1.10414C6.30612 1.10414 6.30333 1.10414 6.30053 1.10414C6.29774 1.10414 6.29495 1.10414 6.29215 1.10414C6.28936 1.10414 6.28657 1.10414 6.28378 1.10414C6.28099 1.10414 6.2782 1.10414 6.27541 1.10414C6.27262 1.10414 6.26983 1.10414 6.26704 1.10414C6.26425 1.10414 6.26146 1.10414 6.25867 1.10414C6.25588 1.10414 6.25309 1.10414 6.2503 1.10414C6.24751 1.10414 6.24473 1.10414 6.24194 1.10414C6.23915 1.10414 6.23636 1.10414 6.23358 1.10414C6.23079 1.10414 6.228 1.10414 6.22522 1.10414C6.22243 1.10414 6.21964 1.10414 6.21686 1.10414C6.21407 1.10414 6.21129 1.10414 6.2085 1.10414C6.20572 1.10414 6.20293 1.10414 6.20015 1.10414C6.19736 1.10414 6.19458 1.10414 6.1918 1.10414C6.18901 1.10414 6.18623 1.10414 6.18345 1.10414C6.18066 1.10414 6.17788 1.10414 6.1751 1.10414C6.17231 1.10414 6.16953 1.10414 6.16675 1.10414C6.16397 1.10414 6.16118 1.10414 6.1584 1.10414C6.15562 1.10414 6.15284 1.10414 6.15006 1.10414C6.14728 1.10414 6.1445 1.10414 6.14171 1.10414C6.13893 1.10414 6.13615 1.10414 6.13337 1.10414C6.13059 1.10414 6.12781 1.10414 6.12503 1.10414C6.12225 1.10414 6.11947 1.10414 6.11669 1.10414C6.11391 1.10414 6.11113 1.10414 6.10835 1.10414C6.10557 1.10414 6.10279 1.10414 6.10001 1.10414C6.09723 1.10414 6.09445 1.10414 6.09168 1.10414C6.0889 1.10414 6.08612 1.10414 6.08334 1.10414C6.08056 1.10414 6.07778 1.10414 6.075 1.10414C6.07222 1.10414 6.06945 1.10414 6.06667 1.10414C6.06389 1.10414 6.06111 1.10414 6.05833 1.10414C6.05555 1.10414 6.05278 1.10414 6.05 1.10414C6.04722 1.10414 6.04444 1.10414 6.04166 1.10414C6.03889 1.10414 6.03611 1.10414 6.03333 1.10414C6.03055 1.10414 6.02778 1.10414 6.025 1.10414C6.02222 1.10414 6.01944 1.10414 6.01667 1.10414C6.01389 1.10414 6.01111 1.10414 6.00833 1.10414C6.00556 1.10414 6.00278 1.10414 6 1.10414C5.99722 1.10414 5.99444 1.10414 5.99167 1.10414C5.98889 1.10414 5.98611 1.10414 5.98333 1.10414C5.98056 1.10414 5.97778 1.10414 5.975 1.10414C5.97222 1.10414 5.96945 1.10414 5.96667 1.10414C5.96389 1.10414 5.96111 1.10414 5.95833 1.10414C5.95556 1.10414 5.95278 1.10414 5.95 1.10414C5.94722 1.10414 5.94445 1.10414 5.94167 1.10414C5.93889 1.10414 5.93611 1.10414 5.93333 1.10414C5.93055 1.10414 5.92778 1.10414 5.925 1.10414C5.92222 1.10414 5.91944 1.10414 5.91666 1.10414C5.91388 1.10414 5.9111 1.10414 5.90832 1.10414C5.90555 1.10414 5.90277 1.10414 5.89999 1.10414C5.89721 1.10414 5.89443 1.10414 5.89165 1.10414C5.88887 1.10414 5.88609 1.10414 5.88331 1.10414C5.88053 1.10414 5.87775 1.10414 5.87497 1.10414C5.87219 1.10414 5.86941 1.10414 5.86663 1.10414C5.86385 1.10414 5.86107 1.10414 5.85829 1.10414C5.8555 1.10414 5.85272 1.10414 5.84994 1.10414C5.84716 1.10414 5.84438 1.10414 5.8416 1.10414C5.83882 1.10414 5.83603 1.10414 5.83325 1.10414C5.83047 1.10414 5.82769 1.10414 5.8249 1.10414C5.82212 1.10414 5.81934 1.10414 5.81655 1.10414C5.81377 1.10414 5.81099 1.10414 5.8082 1.10414C5.80542 1.10414 5.80264 1.10414 5.79985 1.10414C5.79707 1.10414 5.79428 1.10414 5.7915 1.10414C5.78871 1.10414 5.78593 1.10414 5.78314 1.10414C5.78035 1.10414 5.77757 1.10414 5.77478 1.10414C5.772 1.10414 5.76921 1.10414 5.76642 1.10414C5.76364 1.10414 5.76085 1.10414 5.75806 1.10414C5.75527 1.10414 5.75249 1.10414 5.7497 1.10414C5.74691 1.10414 5.74412 1.10414 5.74133 1.10414C5.73854 1.10414 5.73575 1.10414 5.73296 1.10414C5.73017 1.10414 5.72738 1.10414 5.72459 1.10414C5.7218 1.10414 5.71901 1.10414 5.71622 1.10414C5.71343 1.10414 5.71064 1.10414 5.70784 1.10414C5.70505 1.10414 5.70226 1.10414 5.69947 1.10414C5.69667 1.10414 5.69388 1.10414 5.69109 1.10414C5.68829 1.10414 5.6855 1.10414 5.6827 1.10414C5.67991 1.10414 5.67711 1.10414 5.67432 1.10414C5.67152 1.10414 5.66873 1.10414 5.66593 1.10414C5.66313 1.10414 5.66034 1.10414 5.65754 1.10414C5.65474 1.10414 5.65194 1.10414 5.64914 1.10414C5.64635 1.10414 5.64355 1.10414 5.64075 1.10414C5.63795 1.10414 5.63515 1.10414 5.63235 1.10414C5.62955 1.10414 5.62674 1.10414 5.62394 1.10414C5.62114 1.10414 5.61834 1.10414 5.61554 1.10414C5.61273 1.10414 5.60993 1.10414 5.60713 1.10414C5.60432 1.10414 5.60152 1.10414 5.59871 1.10414C5.59591 1.10414 5.5931 1.10414 5.59029 1.10414C5.58749 1.10414 5.58468 1.10414 5.58187 1.10414C5.57907 1.10414 5.57626 1.10414 5.57345 1.10414C5.57064 1.10414 5.56783 1.10414 5.56502 1.10414C5.56221 1.10414 5.5594 1.10414 5.55659 1.10414C5.55378 1.10414 5.55097 1.10414 5.54816 1.10414C5.54534 1.10414 5.54253 1.10414 5.53972 1.10414C5.5369 1.10414 5.53409 1.10414 5.53127 1.10414C5.52846 1.10414 5.52564 1.10414 5.52283 1.10414C5.52001 1.10414 5.51719 1.10414 5.51438 1.10414C5.51156 1.10414 5.50874 1.10414 5.50592 1.10414C5.5031 1.10414 5.50028 1.10414 5.49746 1.10414C5.49464 1.10414 5.49182 1.10414 5.489 1.10414C5.48618 1.10414 5.48335 1.10414 5.48053 1.10414C5.47771 1.10414 5.47488 1.10414 5.47206 1.10414C5.46923 1.10414 5.46641 1.10414 5.46358 1.10414C5.46075 1.10414 5.45793 1.10414 5.4551 1.10414C5.45227 1.10414 5.44944 1.10414 5.44661 1.10414C5.44378 1.10414 5.44095 1.10414 5.43812 1.10414C5.43529 1.10414 5.43246 1.10414 5.42963 1.10414C5.42679 1.10414 5.42396 1.10414 5.42113 1.10414C5.41829 1.10414 5.41546 1.10414 5.41262 1.10414C5.40978 1.10414 5.40695 1.10414 5.40411 1.10414C5.40127 1.10414 5.39843 1.10414 5.39559 1.10414C5.39275 1.10414 5.38991 1.10414 5.38707 1.10414C5.38423 1.10414 5.38139 1.10414 5.37855 1.10414C5.3757 1.10414 5.37286 1.10414 5.37002 1.10414C5.36717 1.10414 5.36433 1.10414 5.36148 1.10414C5.35863 1.10414 5.35579 1.10414 5.35294 1.10414C5.35009 1.10414 5.34724 1.10414 5.34439 1.10414C5.34154 1.10414 5.33869 1.10414 5.33584 1.10414C5.33298 1.10414 5.33013 1.10414 5.32728 1.10414C5.32442 1.10414 5.32157 1.10414 5.31871 1.10414C5.31586 1.10414 5.313 1.10414 5.31014 1.10414C5.30728 1.10414 5.30443 1.10414 5.30157 1.10414C5.29871 1.10414 5.29585 1.10414 5.29298 1.10414C5.29012 1.10414 5.28726 1.10414 5.2844 1.10414C5.28153 1.10414 5.27867 1.10414 5.2758 1.10414C5.27294 1.10414 5.27007 1.10414 5.2672 1.10414C5.26433 1.10414 5.26146 1.10414 5.25859 1.10414C5.25572 1.10414 5.25285 1.10414 5.24998 1.10414C5.24711 1.10414 5.24424 1.10414 5.24136 1.10414C5.23849 1.10414 5.23561 1.10414 5.23274 1.10414C5.22986 1.10414 5.22698 1.10414 5.2241 1.10414C5.22122 1.10414 5.21835 1.10414 5.21546 1.10414C5.21258 1.10414 5.2097 1.10414 5.20682 1.10414C5.20394 1.10414 5.20105 1.10414 5.19817 1.10414C5.19528 1.10414 5.19239 1.10414 5.18951 1.10414C5.18662 1.10414 5.18373 1.10414 5.18084 1.10414C5.17795 1.10414 5.17506 1.10414 5.17217 1.10414C5.16928 1.10414 5.16638 1.10414 5.16349 1.10414C5.16059 1.10414 5.1577 1.10414 5.1548 1.10414C5.1519 1.10414 5.14901 1.10414 5.14611 1.10414C5.14321 1.10414 5.14031 1.10414 5.13741 1.10414C5.1345 1.10414 5.1316 1.10414 5.1287 1.10414C5.12579 1.10414 5.12289 1.10414 5.11998 1.10414C5.11707 1.10414 5.11417 1.10414 5.11126 1.10414C5.10835 1.10414 5.10544 1.10414 5.10253 1.10414C5.09961 1.10414 5.0967 1.10414 5.09379 1.10414C5.09087 1.10414 5.08796 1.10414 5.08504 1.10414C5.08212 1.10414 5.07921 1.10414 5.07629 1.10414C5.07337 1.10414 5.07045 1.10414 5.06753 1.10414C5.0646 1.10414 5.06168 1.10414 5.05876 1.10414C5.05583 1.10414 5.05291 1.10414 5.04998 1.10414C5.04705 1.10414 5.04412 1.10414 5.04119 1.10414C5.03826 1.10414 5.03533 1.10414 5.0324 1.10414C5.02947 1.10414 5.02653 1.10414 5.0236 1.10414C5.02066 1.10414 5.01772 1.10414 5.01479 1.10414C5.01185 1.10414 5.00891 1.10414 5.00597 1.10414C5.00303 1.10414 5.00008 1.10414 4.99714 1.10414C4.9942 1.10414 4.99125 1.10414 4.98831 1.10414C4.98536 1.10414 4.98241 1.10414 4.97946 1.10414C4.97651 1.10414 4.97356 1.10414 4.97061 1.10414C4.96766 1.10414 4.9647 1.10414 4.96175 1.10414C4.95879 1.10414 4.95584 1.10414 4.95288 1.10414C4.94992 1.10414 4.94696 1.10414 4.944 1.10414C4.94104 1.10414 4.93808 1.10414 4.93511 1.10414C4.93215 1.10414 4.92918 1.10414 4.92622 1.10414C4.92325 1.10414 4.92028 1.10414 4.91731 1.10414C4.91434 1.10414 4.91137 1.10414 4.9084 1.10414C4.90542 1.10414 4.90245 1.10414 4.89947 1.10414C4.8965 1.10414 4.89352 1.10414 4.89054 1.10414C4.88756 1.10414 4.88458 1.10414 4.8816 1.10414C4.87862 1.10414 4.87563 1.10414 4.87265 1.10414C4.86966 1.10414 4.86667 1.10414 4.86368 1.10414C4.8607 1.10414 4.85771 1.10414 4.85471 1.10414C4.85172 1.10414 4.84873 1.10414 4.84573 1.10414C4.84274 1.10414 4.83974 1.10414 4.83674 1.10414C4.83375 1.10414 4.83075 1.10414 4.82774 1.10414C4.82474 1.10414 4.82174 1.10414 4.81874 1.10414C4.81573 1.10414 4.81272 1.10414 4.80972 1.10414C4.80671 1.10414 4.8037 1.10414 4.80069 1.10414C4.79768 1.10414 4.79466 1.10414 4.79165 1.10414C4.78863 1.10414 4.78562 1.10414 4.7826 1.10414C4.77958 1.10414 4.77656 1.10414 4.77354 1.10414C4.77052 1.10414 4.76749 1.10414 4.76447 1.10414C4.76144 1.10414 4.75842 1.10414 4.75539 1.10414C4.75236 1.10414 4.74933 1.10414 4.7463 1.10414C4.74327 1.10414 4.74023 1.10414 4.7372 1.10414C4.73416 1.10414 4.73113 1.10414 4.72809 1.10414C4.72505 1.10414 4.72201 1.10414 4.71896 1.10414C4.71592 1.10414 4.71288 1.10414 4.70983 1.10414C4.70679 1.10414 4.70374 1.10414 4.70069 1.10414C4.69764 1.10414 4.69459 1.10414 4.69153 1.10414C4.68848 1.10414 4.68543 1.10414 4.68237 1.10414C4.67931 1.10414 4.67625 1.10414 4.67319 1.10414C4.67013 1.10414 4.66707 1.10414 4.66401 1.10414C4.66094 1.10414 4.65788 1.10414 4.65481 1.10414C4.65174 1.10414 4.64867 1.10414 4.6456 1.10414C4.64253 1.10414 4.63945 1.10414 4.63638 1.10414C4.6333 1.10414 4.63022 1.10414 4.62715 1.10414C4.62407 1.10414 4.62099 1.10414 4.6179 1.10414C4.61482 1.10414 4.61173 1.10414 4.60865 1.10414C4.60556 1.10414 4.60247 1.10414 4.59938 1.10414C4.59629 1.10414 4.5932 1.10414 4.5901 1.10414C4.58701 1.10414 4.58391 1.10414 4.58081 1.10414C4.57772 1.10414 4.57462 1.10414 4.57151 1.10414C4.56841 1.10414 4.56531 1.10414 4.5622 1.10414C4.55909 1.10414 4.55599 1.10414 4.55288 1.10414C4.54976 1.10414 4.54665 1.10414 4.54354 1.10414C4.54042 1.10414 4.53731 1.10414 4.53419 1.10414C4.53107 1.10414 4.52795 1.10414 4.52483 1.10414C4.52171 1.10414 4.51858 1.10414 4.51546 1.10414C4.51233 1.10414 4.5092 1.10414 4.50607 1.10414C4.50294 1.10414 4.49981 1.10414 4.49667 1.10414C4.49354 1.10414 4.4904 1.10414 4.48726 1.10414C4.48412 1.10414 4.48098 1.10414 4.47784 1.10414C4.4747 1.10414 4.47155 1.10414 4.4684 1.10414C4.46526 1.10414 4.46211 1.10414 4.45896 1.10414C4.45581 1.10414 4.45265 1.10414 4.4495 1.10414C4.44634 1.10414 4.44318 1.10414 4.44002 1.10414C4.43686 1.10414 4.4337 1.10414 4.43054 1.10414C4.42737 1.10414 4.42421 1.10414 4.42104 1.10414C4.41787 1.10414 4.4147 1.10414 4.41153 1.10414C4.40835 1.10414 4.40518 1.10414 4.402 1.10414C4.39882 1.10414 4.39565 1.10414 4.39246 1.10414C4.38928 1.10414 4.3861 1.10414 4.38291 1.10414C4.37973 1.10414 4.37654 1.10414 4.37335 1.10414C4.37016 1.10414 4.36697 1.10414 4.36377 1.10414C4.36058 1.10414 4.35738 1.10414 4.35418 1.10414C4.35098 1.10414 4.34778 1.10414 4.34457 1.10414C4.34137 1.10414 4.33817 1.10414 4.33496 1.10414C4.33175 1.10414 4.32854 1.10414 4.32533 1.10414C4.32211 1.10414 4.3189 1.10414 4.31568 1.10414C4.31246 1.10414 4.30924 1.10414 4.30602 1.10414C4.3028 1.10414 4.29957 1.10414 4.29635 1.10414C4.29312 1.10414 4.28989 1.10414 4.28666 1.10414C4.28343 1.10414 4.2802 1.10414 4.27696 1.10414C4.27373 1.10414 4.27049 1.10414 4.26725 1.10414C4.26401 1.10414 4.26076 1.10414 4.25752 1.10414C4.25427 1.10414 4.25102 1.10414 4.24777 1.10414C4.24452 1.10414 4.24127 1.10414 4.23802 1.10414C4.23476 1.10414 4.23151 1.10414 4.22825 1.10414C4.22499 1.10414 4.22172 1.10414 4.21846 1.10414C4.2152 1.10414 4.21193 1.10414 4.20866 1.10414C4.20539 1.10414 4.20212 1.10414 4.19884 1.10414C4.19557 1.10414 4.19229 1.10414 4.18901 1.10414C4.18574 1.10414 4.18245 1.10414 4.17917 1.10414C4.17589 1.10414 4.1726 1.10414 4.16931 1.10414C4.16602 1.10414 4.16273 1.10414 4.15944 1.10414C4.15614 1.10414 4.15285 1.10414 4.14955 1.10414C4.14625 1.10414 4.14295 1.10414 4.13965 1.10414C4.13634 1.10414 4.13304 1.10414 4.12973 1.10414C4.12642 1.10414 4.12311 1.10414 4.11979 1.10414C4.11648 1.10414 4.11316 1.10414 4.10984 1.10414C4.10653 1.10414 4.1032 1.10414 4.09988 1.10414C4.09656 1.10414 4.09323 1.10414 4.0899 1.10414C4.08657 1.10414 4.08324 1.10414 4.07991 1.10414C4.07657 1.10414 4.07323 1.10414 4.0699 1.10414C4.06656 1.10414 4.06321 1.10414 4.05987 1.10414C4.05652 1.10414 4.05318 1.10414 4.04983 1.10414C4.04648 1.10414 4.04313 1.10414 4.03977 1.10414C4.03642 1.10414 4.03306 1.10414 4.0297 1.10414C4.02634 1.10414 4.02297 1.10414 4.01961 1.10414C4.01624 1.10414 4.01287 1.10414 4.0095 1.10414C4.00613 1.10414 4.00276 1.10414 3.99938 1.10414C3.99601 1.10414 3.99263 1.10414 3.98925 1.10414C3.98587 1.10414 3.98248 1.10414 3.97909 1.10414C3.97571 1.10414 3.97232 1.10414 3.96892 1.10414C3.96553 1.10414 3.96214 1.10414 3.95874 1.10414C3.95534 1.10414 3.95194 1.10414 3.94854 1.10414C3.94514 1.10414 3.94173 1.10414 3.93832 1.10414C3.93491 1.10414 3.9315 1.10414 3.92809 1.10414C3.92467 1.10414 3.92125 1.10414 3.91784 1.10414C3.91442 1.10414 3.91099 1.10414 3.90757 1.10414C3.90414 1.10414 3.90071 1.10414 3.89728 1.10414C3.89385 1.10414 3.89042 1.10414 3.88698 1.10414C3.88355 1.10414 3.88011 1.10414 3.87666 1.10414C3.87322 1.10414 3.86978 1.10414 3.86633 1.10414C3.86288 1.10414 3.85943 1.10414 3.85598 1.10414C3.85253 1.10414 3.84907 1.10414 3.84561 1.10414C3.84215 1.10414 3.83869 1.10414 3.83522 1.10414C3.83176 1.10414 3.82829 1.10414 3.82482 1.10414C3.82135 1.10414 3.81788 1.10414 3.8144 1.10414C3.81092 1.10414 3.80745 1.10414 3.80396 1.10414C3.80048 1.10414 3.797 1.10414 3.79351 1.10414C3.79002 1.10414 3.78653 1.10414 3.78304 1.10414C3.77954 1.10414 3.77605 1.10414 3.77255 1.10414C3.76905 1.10414 3.76554 1.10414 3.76204 1.10414C3.75853 1.10414 3.75502 1.10414 3.75151 1.10414C3.748 1.10414 3.74449 1.10414 3.74097 1.10414C3.73745 1.10414 3.73393 1.10414 3.73041 1.10414C3.72689 1.10414 3.72336 1.10414 3.71983 1.10414C3.7163 1.10414 3.71277 1.10414 3.70923 1.10414C3.7057 1.10414 3.70216 1.10414 3.69862 1.10414C3.69508 1.10414 3.69153 1.10414 3.68799 1.10414C3.68444 1.10414 3.68089 1.10414 3.67734 1.10414C3.67378 1.10414 3.67023 1.10414 3.66667 1.10414V1.97914ZM10.8125 4.45831V9.12497H11.6875V4.45831H10.8125ZM8.33333 11.6041H3.66667V12.4791H8.33333V11.6041ZM1.1875 9.12497V4.45831H0.3125V9.12497H1.1875ZM3.66667 11.6041C2.29746 11.6041 1.1875 10.4942 1.1875 9.12497H0.3125C0.3125 10.9774 1.81421 12.4791 3.66667 12.4791V11.6041ZM10.8125 9.12497C10.8125 10.4942 9.70254 11.6041 8.33333 11.6041V12.4791C10.1858 12.4791 11.6875 10.9774 11.6875 9.12497H10.8125ZM8.33333 1.97914C9.70254 1.97914 10.8125 3.0891 10.8125 4.45831H11.6875C11.6875 2.60585 10.1858 1.10414 8.33333 1.10414V1.97914ZM1.18767 2.19885C0.644365 2.79465 0.3125 3.58823 0.3125 4.45831H1.1875C1.1875 3.81477 1.43213 3.22937 1.83422 2.78843L1.18767 2.19885Z" fill="#334A34"/>
<path id="Line" d="M2.5 4.45831H11.25" stroke="#334A34" stroke-width="0.875" stroke-linecap="round" stroke-linejoin="round"/>
<path id="Line_2" d="M8.62504 0.666641L8.62504 2.41664" stroke="#334A34" stroke-width="0.875" stroke-linecap="round" stroke-linejoin="round"/>
<path id="Line_3" d="M3.37504 0.666641L3.37504 2.41664" stroke="#334A34" stroke-width="0.875" stroke-linecap="round" stroke-linejoin="round"/>
<g id="Group 220">
<g id="Group 218">
<path id="Line_4" d="M2.79163 6.79166H3.37496" stroke="#334A34" stroke-width="0.875" stroke-linecap="round" stroke-linejoin="round"/>
<path id="Line_5" d="M5.70825 6.79166H6.29159" stroke="#334A34" stroke-width="0.875" stroke-linecap="round" stroke-linejoin="round"/>
<path id="Line_6" d="M8.625 6.79166H9.20833" stroke="#334A34" stroke-width="0.875" stroke-linecap="round" stroke-linejoin="round"/>
</g>
<g id="Group 219">
<path id="Line_7" d="M2.79163 9.12499H3.37496" stroke="#334A34" stroke-width="0.875" stroke-linecap="round" stroke-linejoin="round"/>
<path id="Line_8" d="M5.70825 9.12499H6.29159" stroke="#334A34" stroke-width="0.875" stroke-linecap="round" stroke-linejoin="round"/>
<path id="Line_9" d="M8.625 9.12499H9.20833" stroke="#334A34" stroke-width="0.875" stroke-linecap="round" stroke-linejoin="round"/>
</g>
</g>
</g>
</svg>
