<svg width="21" height="22" viewBox="0 0 21 22" fill="none" xmlns="http://www.w3.org/2000/svg">
<g id="Home">
<path id="Rectangle 74" d="M1 9.93841C1 8.71422 1.56058 7.55744 2.52142 6.79888L8.02142 2.45677C9.47466 1.30948 11.5253 1.30948 12.9786 2.45677L18.4786 6.79888C19.4394 7.55744 20 8.71422 20 9.93841V16.5C20 18.7091 18.2091 20.5 16 20.5H14.5C13.9477 20.5 13.5 20.0523 13.5 19.5V16.5C13.5 15.3954 12.6046 14.5 11.5 14.5H9.5C8.39543 14.5 7.5 15.3954 7.5 16.5V19.5C7.5 20.0523 7.05228 20.5 6.5 20.5H5C2.79086 20.5 1 18.7091 1 16.5L1 9.93841Z" fill="#334A34" stroke="#334A34" stroke-width="1.5"/>
</g>
</svg>
