<svg width="21" height="21" viewBox="0 0 21 21" fill="none" xmlns="http://www.w3.org/2000/svg">
<g id="vuesax/bold/danger">
<g id="danger">
<path id="Vector" d="M18.6333 13.7667L13.3 4.16666C12.5833 2.87499 11.5916 2.16666 10.5 2.16666C9.40831 2.16666 8.41665 2.87499 7.69998 4.16666L2.36665 13.7667C1.69165 14.9917 1.61665 16.1667 2.15831 17.0917C2.69998 18.0167 3.76665 18.525 5.16665 18.525H15.8333C17.2333 18.525 18.3 18.0167 18.8416 17.0917C19.3833 16.1667 19.3083 14.9833 18.6333 13.7667ZM9.87498 7.99999C9.87498 7.65832 10.1583 7.37499 10.5 7.37499C10.8416 7.37499 11.125 7.65832 11.125 7.99999V12.1667C11.125 12.5083 10.8416 12.7917 10.5 12.7917C10.1583 12.7917 9.87498 12.5083 9.87498 12.1667V7.99999ZM11.0916 15.2583C11.05 15.2917 11.0083 15.325 10.9666 15.3583C10.9166 15.3917 10.8666 15.4167 10.8166 15.4333C10.7666 15.4583 10.7166 15.475 10.6583 15.4833C10.6083 15.4917 10.55 15.5 10.5 15.5C10.45 15.5 10.3916 15.4917 10.3333 15.4833C10.2833 15.475 10.2333 15.4583 10.1833 15.4333C10.1333 15.4167 10.0833 15.3917 10.0333 15.3583C9.99165 15.325 9.94998 15.2917 9.90831 15.2583C9.75831 15.1 9.66665 14.8833 9.66665 14.6667C9.66665 14.45 9.75831 14.2333 9.90831 14.075C9.94998 14.0417 9.99165 14.0083 10.0333 13.975C10.0833 13.9417 10.1333 13.9167 10.1833 13.9C10.2333 13.875 10.2833 13.8583 10.3333 13.85C10.4416 13.825 10.5583 13.825 10.6583 13.85C10.7166 13.8583 10.7666 13.875 10.8166 13.9C10.8666 13.9167 10.9166 13.9417 10.9666 13.975C11.0083 14.0083 11.05 14.0417 11.0916 14.075C11.2416 14.2333 11.3333 14.45 11.3333 14.6667C11.3333 14.8833 11.2416 15.1 11.0916 15.2583Z" fill="white"/>
</g>
</g>
</svg>
