<svg width="13" height="13" viewBox="0 0 13 13" fill="none" xmlns="http://www.w3.org/2000/svg">
<g id="Time Circle">
<path id="Subtract" fill-rule="evenodd" clip-rule="evenodd" d="M0.25 6.5C0.25 3.04822 3.04822 0.25 6.5 0.25C9.95178 0.25 12.75 3.04822 12.75 6.5C12.75 9.95178 9.95178 12.75 6.5 12.75C3.04822 12.75 0.25 9.95178 0.25 6.5ZM6.93605 4.17442C6.93605 3.9336 6.74082 3.73837 6.5 3.73837C6.25918 3.73837 6.06395 3.9336 6.06395 4.17442V6.34442C6.06395 6.58741 6.18539 6.81433 6.38757 6.94911L8.00231 8.0256C8.20269 8.15919 8.47341 8.10504 8.607 7.90467C8.74058 7.70429 8.68644 7.43356 8.48606 7.29998L6.93605 6.26663V4.17442Z" fill="#334A34"/>
</g>
</svg>
