<svg width="21" height="21" viewBox="0 0 21 21" fill="none" xmlns="http://www.w3.org/2000/svg">
<g id="vuesax/bold/ruler&#38;pen">
<g id="ruler&#38;pen">
<path id="Vector" d="M15.8917 2.16666H12.5583C11.3423 2.16666 10.3323 3.19057 10.1058 4.37794C10.0541 4.64919 10.2822 4.87499 10.5583 4.87499H14.225C14.5667 4.87499 14.85 5.15832 14.85 5.49999C14.85 5.84166 14.5667 6.12499 14.225 6.12499H10.5583C10.2822 6.12499 10.0583 6.34885 10.0583 6.62499V7.70832C10.0583 7.98447 10.2822 8.20832 10.5583 8.20832H12.4C12.7417 8.20832 13.025 8.49166 13.025 8.83332C13.025 9.17499 12.7417 9.45832 12.4 9.45832H10.5583C10.2822 9.45832 10.0583 9.68218 10.0583 9.95832V11.005C10.0583 11.2792 10.2792 11.5022 10.5533 11.5049L14.225 11.5417C14.575 11.5417 14.85 11.825 14.85 12.175C14.8417 12.5167 14.5667 12.7917 14.225 12.7917C14.2167 12.7917 14.2167 12.7917 14.2167 12.7917L10.5634 12.7551C10.2853 12.7523 10.0583 12.9769 10.0583 13.255V14.375C10.0583 14.6511 10.2822 14.875 10.5583 14.875H13.3083C13.6583 14.875 13.9334 15.1583 13.9334 15.5C13.9334 15.8417 13.6583 16.125 13.3083 16.125H10.5583C10.2822 16.125 10.0541 16.3508 10.1058 16.622C10.3323 17.8094 11.3423 18.8333 12.5583 18.8333H15.8917C17.2667 18.8333 18.3917 17.7167 18.3917 16.3333V4.66666C18.3917 3.28332 17.2667 2.16666 15.8917 2.16666Z" fill="white"/>
<path id="Vector_2" d="M7.53334 4.62499V5.20832C7.53334 5.48447 7.30948 5.70832 7.03334 5.70832H3.10834C2.83219 5.70832 2.60834 5.48447 2.60834 5.20832V4.62499C2.60834 3.27499 3.71667 2.16666 5.075 2.16666C6.425 2.16666 7.53334 3.27499 7.53334 4.62499Z" fill="white"/>
<path id="Vector_3" d="M2.60834 15.425C2.60834 15.8 2.76667 16.375 2.96667 16.6917L3.64167 17.825C4.43334 19.1417 5.71667 19.1417 6.5 17.825L7.18334 16.6917C7.375 16.375 7.53334 15.8 7.53334 15.425V7.45834C7.53334 7.1822 7.30948 6.95834 7.03334 6.95834H3.10834C2.83219 6.95834 2.60834 7.1822 2.60834 7.45834V15.425Z" fill="white"/>
</g>
</g>
</svg>
