<svg width="17" height="19" viewBox="0 0 17 19" fill="none" xmlns="http://www.w3.org/2000/svg">
<g id="User">
<path id="Ellipse 33" d="M4.5 5C4.5 7.20914 6.29086 9 8.5 9C10.7091 9 12.5 7.20914 12.5 5C12.5 2.79086 10.7091 1 8.5 1" stroke="#9B9B9B" stroke-width="1.5" stroke-linecap="round"/>
<path id="Rectangle 2" d="M1.5 14.9347C1.5 14.0743 2.04085 13.3068 2.85109 13.0175V13.0175C6.50404 11.7128 10.496 11.7128 14.1489 13.0175V13.0175C14.9591 13.3068 15.5 14.0743 15.5 14.9347V16.2502C15.5 17.4376 14.4483 18.3498 13.2728 18.1818L12.3184 18.0455C9.78565 17.6837 7.21435 17.6837 4.68162 18.0455L3.72721 18.1818C2.5517 18.3498 1.5 17.4376 1.5 16.2502V14.9347Z" stroke="#9B9B9B" stroke-width="1.5"/>
</g>
</svg>
